<svg version="1.1" xmlns="http://www.w3.org/2000/svg" x="0" y="0" xml:space="preserve" viewBox="0 0 20 21"><style>.st0{fill:#1e436a}</style><path class="st0" d="M19.4 20.6H.6c-.4 0-.8-.3-.8-.8V3c0-.4.3-.8.8-.8h18.8c.4 0 .8.3.8.8v16.9c-.1.4-.4.7-.8.7zm-18-1.5h17.2V3.8H1.4v15.3z"/><path class="st0" d="M16.9 18.1H3.1c-.4 0-.8-.3-.8-.8V5.5c0-.4.3-.8.8-.8h13.8c.4 0 .8.3.8.8v11.9c-.1.4-.4.7-.8.7zm-13-1.5h12.2V6.2H3.9v10.4z"/><path class="st0" d="M14.4 7.5c-.4 0-.8-.3-.8-.8V1.1c0-.4.3-.8.8-.8s.8.3.8.8v5.6c-.1.5-.4.8-.8.8zm-4.4 0c-.4 0-.8-.3-.8-.8V1.1c0-.4.3-.8.8-.8s.8.3.8.8v5.6c0 .5-.4.8-.8.8zm-4.4 0c-.4 0-.8-.3-.8-.8V1.1c0-.4.3-.8.8-.8s.8.3.8.8v5.6c0 .5-.4.8-.8.8z"/></svg>
