<svg xmlns="http://www.w3.org/2000/svg" viewBox="0 0 62 62"><path d="m62 26.8-2-9v-.1c-.5-1.3-1.4-3.7-4-3.7h-52c-1 0-2.1.4-2.8 1.2-.8.7-1.2 1.7-1.2 2.8v10.9.1s0 0 0 .1v12c.1.8.4 1.5.9 2s1.2.8 2.1.9h5.1c.5 2.3 2.5 4 4.9 4s4.4-1.7 4.9-4h24.2c.5 2.3 2.5 4 4.9 4s4.4-1.7 4.9-4h7.6c.7 0 1.3-.3 1.8-.7.5-.5.7-1.1.7-1.8v-14.5c0-.1 0-.1 0-.2zm-6-10.8c.9 0 1.4.6 2 2.3l2 8.8v6.9h-8v-18zm-20 0h14v12h-14zm-17 0h15v12h-15zm-17 2c0-.5.2-1 .6-1.4s.9-.6 1.4-.6h13v12h-15zm.3 23.6c-.2-.1-.3-.4-.3-.6v-11h48v9c-.8-.6-1.9-1-3-1-2.4 0-4.4 1.7-4.9 4h-24.2c-.5-2.3-2.5-4-4.9-4s-4.4 1.7-4.9 4h-5c-.3 0-.6-.1-.8-.4zm10.7 4.4c-1.7 0-3-1.3-3-3s1.3-3 3-3 3 1.3 3 3-1.3 3-3 3zm34 0c-1.7 0-3-1.3-3-3s1.3-3 3-3 3 1.3 3 3-1.3 3-3 3zm12.9-4.1c-.1.1-.2.1-.4.1h-7.5v-6h8v5.5c0 .1-.1.3-.1.4z"/></svg>