<svg viewBox="0 0 62 62" xmlns="http://www.w3.org/2000/svg"><path d="m34 6h-5.9c-.6 0-1 .4-1 1s.4 1 1 1h5.9c.6 0 1-.4 1-1s-.4-1-1-1zm7.1 40h5.9c.6 0 1-.4 1-1s-.4-1-1-1h-5.9c-.6 0-1 .4-1 1s.4 1 1 1zm-26 0h5.9c.6 0 1-.4 1-1s-.4-1-1-1h-5.9c-.6 0-1 .4-1 1s.4 1 1 1z"/><path d="m54.5 1.5c-.9-1-2.2-1.5-3.5-1.5h-40c-1.3 0-2.6.5-3.5 1.5-1 .9-1.5 2.2-1.5 3.5v48c0 .6.4 1 1 1h1v5c0 .8.3 1.6.9 2.1.5.6 1.3.9 2.1.9h6c.8 0 1.6-.3 2.1-.9.6-.6.9-1.3.9-2.1v-5h22v5c0 .8.3 1.6.9 2.1.6.6 1.3.9 2.1.9h6c.8 0 1.6-.3 2.1-.9.6-.6.9-1.3.9-2.1v-5h1c.6 0 1-.4 1-1v-48c0-1.3-.5-2.6-1.5-3.5zm-36.5 57.5c0 .3-.1.5-.3.7s-.4.3-.7.3h-6c-.3 0-.5-.1-.7-.3s-.3-.4-.3-.7v-5h8zm34 0c0 .3-.1.5-.3.7s-.4.3-.7.3h-6c-.3 0-.5-.1-.7-.3s-.3-.4-.3-.7v-5h8zm2-7h-46v-14h46zm0-16h-46v-20h46zm0-22h-46v-9c0-.8.3-1.6.9-2.1.5-.6 1.3-.9 2.1-.9h40c.8 0 1.6.3 2.1.9.6.5.9 1.3.9 2.1z"/></svg>