<svg width="20" height="21" viewBox="0 0 20 21" fill="none" xmlns="http://www.w3.org/2000/svg">
    <g clip-path="url(#clip0)">
        <path d="M16.875 17.375V19.25C16.875 19.4158 16.8092 19.5747 16.6919 19.6919C16.5747 19.8092 16.4158 19.875 16.25 19.875H14.375C14.2092 19.875 14.0503 19.8092 13.9331 19.6919C13.8158 19.5747 13.75 19.4158 13.75 19.25V17.375M9.09375 3H10.9375H9.09375ZM6.25 17.375V19.25C6.25 19.4158 6.18415 19.5747 6.06694 19.6919C5.94973 19.8092 5.79076 19.875 5.625 19.875H3.75C3.58424 19.875 3.42527 19.8092 3.30806 19.6919C3.19085 19.5747 3.125 19.4158 3.125 19.25V17.375H6.25Z" stroke="#1E436A" stroke-width="1.5" stroke-linecap="round" stroke-linejoin="round"/>
        <path d="M5.03125 14.875H6.875H5.03125ZM13.1562 14.875H15H13.1562ZM2.5 5.5H17.5H2.5ZM2.5 12.375H17.5H2.5ZM17.5 17.375V2.375C17.5 2.04348 17.3683 1.72554 17.1339 1.49112C16.8995 1.2567 16.5815 1.125 16.25 1.125H3.75C3.41848 1.125 3.10054 1.2567 2.86612 1.49112C2.6317 1.72554 2.5 2.04348 2.5 2.375V17.375H17.5Z" stroke="#1E436A" stroke-width="1.5" stroke-linecap="round" stroke-linejoin="round"/>
    </g>
    <defs>
        <clipPath id="clip0">
            <rect width="20" height="20" fill="white" transform="translate(0 0.5)"/>
        </clipPath>
    </defs>
</svg>
