<svg version="1.1" xmlns="http://www.w3.org/2000/svg" x="0" y="0" xml:space="preserve" viewBox="0 0 20 21"><style>.st0{fill:#1e436a}</style><path class="st0" d="M16.2 20.6h-1.9c-.4 0-.7-.1-1-.4-.3-.3-.4-.6-.4-1v-1.9c0-.4.3-.8.8-.8s.8.3.8.8v1.8h1.6v-1.8c0-.4.3-.8.8-.8s.8.3.8.8v1.9c0 .4-.1.7-.4 1-.3.3-.7.4-1.1.4zm-10.6 0H3.8c-.4 0-.7-.1-1-.4-.3-.3-.4-.6-.4-1v-1.9c0-.4.3-.8.8-.8h3.1c.4.1.7.5.7.9v1.9c0 .4-.1.7-.4 1-.3.2-.6.3-1 .3zm-1.7-1.5h1.6v-1H3.9v1zm7-15.3H9.1c-.4 0-.8-.4-.8-.8s.3-.8.8-.8h1.8c.4 0 .8.3.8.8s-.3.8-.8.8z"/><path class="st0" d="M17.5 18.1h-15c-.4 0-.8-.3-.8-.8v-15c0-.5.2-1 .6-1.4S3.2.3 3.7.3h12.5c.5 0 1 .2 1.4.6.4.4.6.9.6 1.4v15c0 .5-.3.8-.7.8zM3.2 16.6h13.5v-3.5H3.2v3.5zm0-5h13.5V6.2H3.2v5.4zm0-6.8h13.5V2.4c0-.1-.1-.3-.1-.4-.1-.1-.2-.1-.4-.1H3.8c-.2 0-.3 0-.4.1-.1.1-.2.2-.2.4v2.4zM15 15.6h-1.8c-.4 0-.8-.3-.8-.8s.3-.8.8-.8H15c.4 0 .8.3.8.8s-.4.8-.8.8zm-8.1 0H5c-.4 0-.8-.3-.8-.8s.3-.8.8-.8h1.8c.4 0 .8.3.8.8s-.3.8-.7.8z"/></svg>
