<svg xmlns="http://www.w3.org/2000/svg" viewBox="0 0 62 62"><path d="M31 0C13.9 0 0 13.9 0 31s13.9 31 31 31 31-13.9 31-31S48.1 0 31 0zm1 60v-5c0-.6-.4-1-1-1s-1 .4-1 1v5C14.8 59.5 2.5 47.2 2 32h5c.6 0 1-.4 1-1s-.4-1-1-1H2C2.5 14.8 14.8 2.5 30 2v5c0 .6.4 1 1 1s1-.4 1-1V2c15.2.5 27.5 12.8 28 28h-5c-.6 0-1 .4-1 1s.4 1 1 1h5c-.5 15.2-12.8 27.5-28 28z"/><path d="M46.3 18.3L30.9 33.7l-10.3-8.4c-.4-.3-1.1-.3-1.4.1s-.3 1.1.1 1.4l11 9c.2.2.4.2.6.2.3 0 .5-.1.7-.3l16-16c.4-.4.4-1 0-1.4s-.9-.4-1.3 0z"/></svg>