<svg xmlns="http://www.w3.org/2000/svg" viewBox="0 0 62 62"><path d="M49.7 59.6l-7.6-34.8 1.8-8.3 4.5-1.7c.5-.2.9-.6 1.2-1.1.2-.5.2-1.1 0-1.6l-4.1-8.7c-.4-.8-1.1-1.4-1.9-1.6L37.3 0H24.7l-6.1 1.8c-.8.2-1.5.8-1.9 1.6l-4.1 8.7c-.2.5-.3 1.1 0 1.6.2.5.6.9 1.2 1.1l4.5 1.7 1.8 8.3-7.6 34.8c-.1.6 0 1.2.4 1.7s.9.7 1.6.7H48c.6 0 1.2-.3 1.6-.7.1-.5.2-1.1.1-1.7zM36.7 2L31 9.4 25.3 2h11.4zM19.4 14.8l-5-1.9 4.1-8.7c.1-.3.4-.5.6-.5l4-1.2v.1l7 9c.2.2.5.4.8.4s.6-.1.8-.4l7-9v-.1l4 1.2c.3.1.5.3.6.5l4.1 8.7-5 1.9c-.3.1-.6.4-.6.7l-1.7 8H21.7l-1.7-8c-.1-.3-.3-.6-.6-.7zM38.9 60L36 34.9c-.1-.5-.6-.9-1.1-.9-.5.1-.9.6-.9 1.1L36.9 60H25.1L28 35.1c.1-.5-.3-1-.9-1.1-.5-.1-1 .3-1.1.9L23.1 60h-8.9l7.5-34.4.1-.1h18.3s0 .1.1.1L47.8 60h-8.9z" /></svg>