<svg width="20" height="21" viewBox="0 0 20 21" fill="none" xmlns="http://www.w3.org/2000/svg">
    <path d="M6.875 8.46875H13.125L15.3589 18.6609C15.4956 19.2847 15.0206 19.875 14.3821 19.875H5.61792C4.97936 19.875 4.50439 19.2847 4.6411 18.6609L6.875 8.46875Z" stroke="#1E436A" stroke-width="1.5" stroke-linecap="round" stroke-linejoin="round"/>
    <path d="M13.125 8.625L13.75 5.73438L14.6048 5.41381C15.1536 5.20804 15.4085 4.57666 15.1566 4.04755L14.4507 2.56515C14.2039 2.0469 13.7463 1.65966 13.1944 1.50197L11.875 1.125H10H8.125L6.80561 1.50197C6.25369 1.65966 5.79612 2.0469 5.54933 2.56515L4.84343 4.04755C4.59147 4.57666 4.84644 5.20804 5.39517 5.41381L6.25 5.73438L6.875 8.625" stroke="#1E436A" stroke-width="1.5" stroke-linecap="round" stroke-linejoin="round"/>
    <path d="M12.1875 1.4375L10 4.25L7.8125 1.4375" stroke="#1E436A" stroke-width="1.5" stroke-linecap="round" stroke-linejoin="round"/>
    <path d="M8.75 11.75L7.8125 19.875" stroke="#1E436A" stroke-width="1.5" stroke-linecap="round" stroke-linejoin="round"/>
    <path d="M11.25 11.75L12.1875 19.875" stroke="#1E436A" stroke-width="1.5" stroke-linecap="round" stroke-linejoin="round"/>
</svg>
