<svg version="1.1" id="Layer_1" xmlns="http://www.w3.org/2000/svg" x="0" y="0" xml:space="preserve" viewBox="0 0 20 21"><style>.st0{fill:#1e436a}</style><path class="st0" d="M14.4 20.6H5.6c-.5 0-1-.2-1.4-.7-.3-.4-.5-1-.3-1.5L6.1 8.3c.1-.3.4-.6.8-.6h6.2c.4 0 .7.2.7.6L16 18.5c.1.5 0 1.1-.3 1.5-.3.4-.8.6-1.3.6zM7.5 9.2l-2.1 9.6v.2s.1.1.2.1h8.8c.1 0 .2-.1.2-.1s.1-.1 0-.2l-2.1-9.6h-5z"/><path class="st0" d="M13.1 9.4h-.2c-.4-.1-.7-.5-.6-.9l.7-2.9c.1-.2.2-.5.5-.5l.9-.3c.1 0 .1-.1.1-.1v-.2L13.8 3c-.2-.3-.4-.6-.8-.7L11.8 2H8.2L7 2.2c-.3.1-.6.4-.8.7l-.7 1.5v.2l.1.1.9.3c.3.1.4.3.5.6l.6 2.9c.1.4-.2.8-.6.9-.4 0-.8-.2-.9-.6l-.5-2.5-.5-.2c-.5-.2-.8-.5-1-1s-.2-1 0-1.4l.7-1.5c.3-.7 1-1.2 1.7-1.5L7.8.3H12l1.3.4c.8.2 1.4.7 1.7 1.5l.7 1.5c.2.4.2 1 0 1.4-.2.5-.6.8-1 1l-.5.2-.5 2.5c.1.3-.2.6-.6.6z"/><path class="st0" d="M10 5c-.2 0-.4-.1-.6-.3L7.2 1.9C7 1.6 7 1.1 7.4.8c.3-.2.7-.2 1 .2L10 3l1.6-2c.3-.3.7-.4 1.1-.1.3.2.3.7.1 1l-2.2 2.8c-.2.2-.4.3-.6.3zM7.8 20.6c-.5-.1-.8-.4-.7-.8l.9-8.1c0-.4.4-.7.8-.7s.7.4.7.8L8.6 20c-.1.3-.4.6-.8.6zM12.2 20.6c-.4 0-.7-.3-.7-.7l-.9-8.1c0-.4.2-.8.7-.8.4 0 .8.2.8.7l.9 8.1c0 .4-.3.8-.8.8z"/></svg>