<svg viewBox="0 0 62 62" xmlns="http://www.w3.org/2000/svg"><path d="m43.9 26.1c-.3 0-.5-.1-.7-.3-.4-.4-.4-1 0-1.4l1.9-1.9c1.7-1.7.8-3.8-.5-5.1-.8-.8-1.8-1.3-2.7-1.4s-1.7.2-2.4.9l-1.9 1.9c-.4.4-1 .4-1.4 0s-.4-1 0-1.4l1.9-1.9c1.1-1.1 2.6-1.7 4.1-1.5 1.4.1 2.7.9 3.9 2 2.5 2.5 2.7 5.7.5 7.9l-1.9 1.9c-.3.2-.6.3-.8.3z"/><path d="m24.2 45.8c-.3 0-.5-.1-.7-.3l-7-7c-.4-.4-.4-1 0-1.4s1-.4 1.4 0l7 7c.4.4.4 1 0 1.4-.2.2-.5.3-.7.3zm16.6-16.6c-.3 0-.5-.1-.7-.3l-7-7c-.4-.4-.4-1 0-1.4l3.1-3.1c.2-.2.4-.3.7-.3s.5.1.7.3l7 7c.2.2.3.4.3.7s-.1.5-.3.7l-3.1 3.1c-.2.2-.4.3-.7.3zm-5.6-8 5.6 5.6 1.7-1.7-5.6-5.6z"/><path d="m31 62c-17.1 0-31-13.9-31-31s13.9-31 31-31 31 13.9 31 31-13.9 31-31 31zm0-60c-16 0-29 13-29 29s13 29 29 29 29-13 29-29-13-29-29-29z"/><path d="m15 48c-.3 0-.5-.1-.7-.3s-.3-.6-.3-.9l2.2-9.2c0-.2.1-.3.3-.5l16.6-16.6c.4-.4 1-.4 1.4 0l7 7c.2.2.3.4.3.7s-.1.5-.3.7l-16.6 16.6c-.1.1-.3.2-.5.3l-9.2 2.2zm3.1-9.7-1.7 7.3 7.3-1.7 15.7-15.7-5.6-5.6z"/></svg>