<svg viewBox="0 0 29 30" fill="none" xmlns="http://www.w3.org/2000/svg">
<path d="M14.7833 4.05307C15.6958 3.29335 16.4563 2.53363 17.2167 2.0778C22.3878 -1.11302 28.6236 2.38169 28.7757 8.61139C28.9278 11.3464 28.1673 13.9294 26.4943 16.2086C24.6692 18.6397 22.692 21.0708 20.7148 23.35C19.1939 25.1733 17.5209 26.8447 16 28.5161C15.2396 29.4277 14.4791 29.4277 13.5666 28.668C12.9582 28.2122 12.3498 27.6044 11.8935 26.9966C8.85173 23.0461 5.8099 19.0955 2.76808 15.145C0.182525 11.8022 -0.121666 8.91528 2.61598 4.81279C5.20153 1.01419 9.46009 0.254475 13.4145 2.98947C14.0228 3.4453 14.4791 3.74918 14.7833 4.05307ZM14.9354 26.085C16.3042 24.5655 17.5209 23.198 18.7377 21.8305C20.7148 19.5514 22.5399 17.2722 24.365 14.993C26.038 12.7139 26.6464 10.1308 26.038 7.39584C25.7338 5.72446 24.6692 4.35696 22.9962 3.90113C20.7148 3.29335 18.8897 3.90113 17.3688 5.72446C15.3916 8.15556 14.9354 8.15556 12.8061 5.8764C11.4373 4.50891 9.91636 3.90113 8.09127 4.35696C4.44108 5.26863 2.76807 10.4347 4.89734 13.0178C8.24335 17.1203 11.2852 21.3747 14.6312 25.6291C14.4791 25.6291 14.6312 25.7811 14.9354 26.085Z" fill="white"/>
</svg>
