<svg width="24" height="24" viewBox="0 0 24 24" fill="none" xmlns="http://www.w3.org/2000/svg">
	<path d="M12 23.25C18.2132 23.25 23.25 18.2132 23.25 12C23.25 5.7868 18.2132 0.75 12 0.75C5.7868 0.75 0.75 5.7868 0.75 12C0.75 18.2132 5.7868 23.25 12 23.25Z" stroke="#5D7EA0" stroke-width="1.5" stroke-miterlimit="10" stroke-linecap="round" stroke-linejoin="round"/>
	<path d="M10.5 9.75H12V18M10.5 18.003H13.5" stroke="#5D7EA0" stroke-width="1.5" stroke-miterlimit="10" stroke-linecap="round" stroke-linejoin="round"/>
	<path d="M11.625 7.875C12.0392 7.875 12.375 7.53921 12.375 7.125C12.375 6.71079 12.0392 6.375 11.625 6.375C11.2108 6.375 10.875 6.71079 10.875 7.125C10.875 7.53921 11.2108 7.875 11.625 7.875Z" stroke="#5D7EA0" stroke-width="1.5" stroke-miterlimit="10" stroke-linecap="round" stroke-linejoin="round"/>
</svg>
