<svg xmlns="http://www.w3.org/2000/svg" viewBox="0 0 62 62"><path d="M56 2.5c-3.3-3.3-8.7-3.3-12 0C42.5 4 41.6 6 41.5 8.1c-.2-.2-.3-.4-.5-.5-3.3-3.3-8.7-3.3-12 0-1.6 1.6-2.5 3.7-2.5 6s.9 4.4 2.5 6c.4.4.8.7 1.3 1L26.8 24c-.4.4-.4 1 0 1.4l3.4 3.4L3.8 55.3c-.4.4-.4 1 0 1.4l5 5c.2.2.5.3.7.3s.5-.1.7-.3c.4-.4.4-1 0-1.4L5.9 56l5.6-5.6 4.3 4.3c.4.4 1 .4 1.4 0s.4-1 0-1.4L12.9 49l18.7-18.7 3.4 3.4c.2.2.5.3.7.3.3 0 .5-.1.7-.3l3.9-3.9c.2.2.4.4.6.7 1.6 1.6 3.7 2.5 6 2.5s4.4-.9 6-2.5 2.5-3.7 2.5-6-.9-4.4-2.5-6c-.7-.7-1.4-1.2-2.2-1.6 1.9-.2 3.7-1 5.2-2.4 3.4-3.3 3.4-8.7.1-12zm-12 12c.7.7 1.4 1.2 2.2 1.6-1.2.1-2.4.5-3.5 1.1.5-1 .8-2.1.8-3.2l.5.5zm-15.5-1c0-1.7.7-3.4 1.9-4.6C31.7 7.7 33.4 7 35 7c1.7 0 3.3.6 4.6 1.9 1.2 1.2 1.9 2.9 1.9 4.6s-.7 3.4-1.9 4.6c-2 2-4.9 2.4-7.3 1.3 0 0-.1 0-.1-.1-.7-.3-1.3-.7-1.8-1.3-1.2-1.1-1.9-2.7-1.9-4.5zm7.3 18.1l-6.9-6.9 3.2-3.2c1 .3 1.9.5 2.9.5 1.5 0 3-.4 4.3-1.2-.5 1.1-.8 2.4-.8 3.7s.3 2.5.8 3.6zm17.7-7.1c0 1.7-.7 3.4-1.9 4.6S48.7 31 47 31s-3.4-.7-4.6-1.9-1.9-2.9-1.9-4.6.7-3.4 1.9-4.6c1.3-1.3 2.9-1.9 4.6-1.9s3.3.6 4.6 1.9c1.2 1.2 1.9 2.9 1.9 4.6zm-8.1-11.4c-1.2-1.2-1.9-2.9-1.9-4.6s.7-3.4 1.9-4.6C46.7 2.6 48.3 2 50 2s3.3.6 4.6 1.9c2.5 2.5 2.5 6.7 0 9.2-2.6 2.5-6.7 2.5-9.2 0z" fill="#1e436a"/></svg>