<svg viewBox="0 0 62 62" xmlns="http://www.w3.org/2000/svg"><path d="m51.2 4.1c-1.2 0-2.4.5-3.2 1.3-1.8 1.8-1.8 4.7 0 6.5.9.9 2.1 1.3 3.2 1.3 1.2 0 2.3-.4 3.2-1.3 1.8-1.8 1.8-4.7 0-6.5-.9-.8-2-1.3-3.2-1.3zm1.8 6.4c-1 1-2.6 1-3.6 0s-1-2.6 0-3.6c.5-.5 1.1-.7 1.8-.7s1.3.3 1.8.7c1 1 1 2.6 0 3.6zm-16.5-2.4c-1.2 0-2.4.5-3.2 1.3-1.8 1.8-1.8 4.7 0 6.5.9.9 2 1.3 3.2 1.3s2.4-.5 3.2-1.3c1.8-1.8 1.8-4.7 0-6.5-.8-.8-2-1.3-3.2-1.3zm1.8 6.4c-1 1-2.6 1-3.6 0s-1-2.6 0-3.6c.5-.5 1.1-.7 1.8-.7s1.3.3 1.8.7c1 1 1 2.6 0 3.6zm5.8 5.7c-1.8 1.8-1.8 4.7 0 6.5.9.9 2 1.3 3.2 1.3s2.4-.5 3.2-1.3c1.8-1.8 1.8-4.7 0-6.5-.9-.9-2-1.3-3.2-1.3s-2.4.5-3.2 1.3zm5 5.1c-1 1-2.6 1-3.6 0s-1-2.6 0-3.6c.5-.5 1.1-.7 1.8-.7s1.3.3 1.8.7c1 1 1 2.6 0 3.6z"/><path d="m59.7 7.4c-.3-1.8-1.1-3.6-2.5-4.9-1.3-1.3-3.1-2.2-4.9-2.4-1.8-.3-3.8.1-5.4 1s-3 2.3-3.7 4c-.2.5-.4 1-.5 1.6-.9-1-2-1.7-3.3-2.2-1.2-.5-2.6-.7-3.9-.5-1.3.1-2.6.6-3.7 1.2-1.1.7-2.1 1.6-2.8 2.7s-1.2 2.4-1.3 3.7 0 2.6.4 3.9c.4 1.2 1.2 2.4 2.1 3.3l.1.1.4.3-4.3 4.3c-.2.2-.3.5-.3.7s.1.5.3.7l2 2-25.3 25.6c-.6.6-.9 1.3-.9 2.1s.3 1.6.9 2.1l4.3 4.3c.3.3.6.5 1 .7.3.2.7.3 1.1.3s.8-.1 1.2-.2.7-.4 1-.6c.3-.3.5-.6.7-1s.2-.8.3-1.2c0-.4-.1-.8-.2-1.2-.2-.4-.4-.7-.6-1l-2.2-2.1 1.4-1.4 2.1 2.1c1.2 1.2 3.2 1.2 4.4 0 .6-.6.9-1.4.9-2.2s-.3-1.6-.9-2.2l-2.1-2.1 17.6-17.6 2.1 2.1c.2.2.5.3.7.3.3 0 .5-.1.7-.3l4.3-4.3.3.4.1.1c1.7 1.5 3.8 2.4 6.1 2.3 2.3 0 4.4-.9 6-2.5s2.5-3.7 2.5-6-.8-4.4-2.3-6.1l-.3-.3c.5-.1 1.1-.3 1.6-.5 1.7-.8 3.1-2.1 4-3.7.7-1.6 1.1-3.5.8-5.4zm-46.5 40.7c-.2.2-.3.5-.3.7s.1.5.3.7l2.9 2.9c.2.2.3.5.3.8s-.1.6-.3.8c-.4.4-1.1.4-1.5 0l-2.9-2.9c-.4-.4-1-.4-1.4 0l-2.9 2.9c-.2.2-.3.5-.3.7s.1.5.3.7l2.9 2.8c.1.1.2.2.2.3.1.1.1.3.1.4s0 .3-.1.4-.1.2-.2.3-.2.2-.3.2c-.2.1-.3.2-.4.2s-.3 0-.4-.1-.3-.1-.4-.3l-4.3-4.3c-.2-.2-.3-.4-.3-.7s.1-.5.3-.7l25.5-25.5 1.5 1.5zm43.7-36.3c-.7 1.3-1.8 2.3-3.1 2.9s-2.8.7-4.2.4c-.5-.1-1.1.2-1.2.7s.2 1.1.7 1.2c1 .3 2 .9 2.7 1.7 1.2 1.3 1.8 2.9 1.8 4.6s-.7 3.3-1.9 4.6a6.42 6.42 0 0 1 -4.6 1.9c-1.7 0-3.3-.6-4.6-1.7l-1-1.3c-.2-.2-.4-.4-.7-.4s-.6.1-.8.3l-4.4 4.4-1.8-1.8c-.1-.1-.1-.2-.2-.3l-3-2.9-2-2 4.4-4.4c.2-.2.3-.5.3-.8s-.2-.6-.4-.7l-1.3-1c-.7-.7-1.2-1.5-1.6-2.5-.3-.9-.5-2-.3-3 .1-1 .5-2 1-2.8s1.3-1.6 2.1-2.1 1.8-.8 2.8-.9 2 0 3 .4c.9.4 1.8.9 2.5 1.7.7.7 1.2 1.6 1.5 2.6.2.5.7.8 1.2.7s.9-.7.7-1.2c-.3-1.4-.2-2.9.4-4.2s1.6-2.4 2.8-3.1c1.3-.7 2.7-1 4.1-.8 1.7.3 3 1 4 2s1.7 2.3 1.9 3.8c.2 1.3-.1 2.8-.8 4z"/></svg>