<svg xmlns="http://www.w3.org/2000/svg" viewBox="0 0 24 24"><path d="M3.8 24h-3c-.5 0-.8-.3-.8-.8v-3c0-.2.1-.4.2-.5L1 19c.1-.1.3-.2.5-.2h.8v-1.5c0-.4.3-.8.8-.8h1.5V15c0-.4.3-.8.8-.8h1.5v-.7c0-.2.1-.4.2-.5l2.6-2.6c-.7-1.4-.9-3-.5-4.6.4-1.7 1.4-3.3 2.9-4.3 1.4-1.1 3.2-1.6 5-1.4 1.8.1 3.5.9 4.7 2.2 1.2 1.3 2 2.9 2.1 4.7s-.4 3.5-1.4 5c-1 1.4-2.6 2.5-4.3 2.9-1.5.4-3.2.3-4.6-.3L4.3 24c-.2-.1-.4 0-.5 0zm-2.3-1.5h1.9l9.5-9.5c.2-.2.6-.3.9-.1 1.3.6 2.7.8 4.1.5 1.4-.3 2.6-1.2 3.4-2.3.8-1.1 1.2-2.6 1.1-4-.1-1.4-.7-2.7-1.7-3.8-1-1-2.4-1.6-3.8-1.7-1.4-.1-2.8.3-4 1.1-1.2.8-2 2.1-2.3 3.5s-.1 2.9.5 4.1c.1.3.1.6-.1.9l-2.8 2.7V15c0 .4-.3.8-.8.8H6v1.5c0 .4-.3.7-.8.7H3.8v1.5c0 .4-.3.8-.8.8H1.8l-.3.3v1.9zM18 8.2c-.3 0-.6-.1-.9-.2-.4-.2-.8-.5-1-.8-.2-.4-.4-.8-.4-1.2s.1-.9.4-1.2c.2-.4.6-.7 1-.8.4-.2.9-.2 1.3-.1s.8.3 1.2.6c.2.2.4.5.5.7.1.3.2.6.2.9s-.1.6-.2.9c-.1.3-.3.5-.5.7-.3.3-.7.5-1.2.6-.1-.1-.3-.1-.4-.1zm0-3c-.1 0-.2 0-.3.1-.1.1-.3.2-.3.3-.1.1-.1.3-.1.4 0 .1 0 .3.1.4l.3.3c.1.1.3.1.4 0 .1 0 .3-.1.4-.2.1-.1.1-.2.2-.2 0-.1.1-.2.1-.3s0-.2-.1-.3c0-.1-.1-.2-.2-.2-.1-.1-.2-.2-.4-.2 0-.1-.1-.1-.1-.1z" fill="#5d7ea0"/></svg>