<svg viewBox="0 0 62 62" xmlns="http://www.w3.org/2000/svg"><path d="m5.3 62c-.6 0-1.2-.1-1.8-.3-.7-.3-1.4-.7-1.9-1.2-.5-.6-1-1.2-1.2-1.9-.3-.8-.4-1.5-.4-2.3.1-.8.3-1.5.7-2.2.4-.6.8-1.2 1.4-1.6l3.9-3.9-5.2-5.2c-.2-.2-.3-.4-.3-.7s.1-.5.3-.7l5.7-5.7c.2-.2.4-.3.7-.3s.5.1.7.3l5.2 5.2 18.8-18.9c-1.5-3.2-1.9-6.8-1.1-10.3.8-3.7 3-7 6-9.3 3-2.3 6.8-3.4 10.6-3.1 3.8.3 7.4 1.9 10.1 4.6s4.3 6.3 4.6 10.1-.8 7.6-3.1 10.6-5.6 5.2-9.3 6c-3.5.8-7.1.4-10.3-1.1l-29.9 29.8c-.4.6-1 1.1-1.6 1.4-.7.4-1.4.6-2.2.7zm-2.4-19.3 5.2 5.2c.2.2.3.4.3.7s-.1.5-.3.7l-4.6 4.7-.1.1c-.4.3-.7.6-.9 1-.3.4-.5.9-.5 1.4s0 1 .2 1.4.4.8.8 1.2c.3.3.7.6 1.2.7.4.2.8.2 1.3.2s.9-.2 1.4-.4c.4-.2.8-.6 1-.9l.1-.1 30.4-30.3c.3-.3.8-.4 1.2-.2 2.9 1.6 6.3 2 9.6 1.3 3.2-.7 6.1-2.6 8.1-5.3s2.9-6 2.7-9.3-1.7-6.4-4-8.8c-2.4-2.3-5.5-3.7-8.8-4-3.3-.2-6.6.7-9.3 2.7s-4.5 4.9-5.3 8.1c-.7 3.2-.3 6.6 1.3 9.6.2.4.1.9-.2 1.2l-20 20.1c-.2.2-.4.3-.7.3s-.5-.1-.7-.3l-5.2-5.2-4.2 4.2zm43.2-18.9c-1 0-2.1-.2-3-.6-1.5-.6-2.7-1.6-3.6-2.9s-1.3-2.8-1.3-4.4.5-3.1 1.3-4.4c.9-1.3 2.1-2.3 3.6-2.9s3-.8 4.6-.5c1.5.3 2.9 1.1 4.1 2.2.7.7 1.3 1.6 1.7 2.6s.6 2 .6 3-.2 2.1-.6 3c-.4 1-1 1.8-1.7 2.6-1.1 1.1-2.5 1.9-4.1 2.2-.5.1-1.1.1-1.6.1zm0-13.9c-.8 0-1.5.2-2.3.5-1.1.5-2 1.2-2.7 2.2s-1 2.1-1 3.3.3 2.3 1 3.3 1.6 1.7 2.7 2.2 2.3.6 3.4.3c1.2-.2 2.2-.8 3-1.6.6-.6 1-1.2 1.3-1.9s.5-1.5.5-2.3-.2-1.6-.5-2.3-.7-1.4-1.3-1.9c-.8-.8-1.9-1.4-3.1-1.6-.2-.1-.6-.2-1-.2z"/></svg>