<svg viewBox="0 0 62 62" xmlns="http://www.w3.org/2000/svg"><path d="m9.1 62h-8c-.6 0-1-.4-1-1v-8c0-.3.1-.5.3-.7l2-2c.2-.2.4-.3.7-.3h3v-5c0-.6.4-1 1-1h5v-5c0-.6.4-1 1-1h5v-2.8c0-.3.1-.5.3-.7l7.5-7.4c-1.8-3.9-2.3-8.2-1.3-12.4 1-4.4 3.6-8.3 7.3-11s8.1-4 12.7-3.6c4.5.3 8.8 2.3 12 5.5 3.1 3.2 5.1 7.4 5.4 11.9s-.9 8.9-3.6 12.6c-2.6 3.6-6.5 6.2-10.9 7.3-4.1 1-8.5.6-12.3-1.1l-25.4 25.4c-.2.2-.5.3-.7.3zm-7-2h6.6l25.5-25.7c.3-.3.8-.4 1.2-.2 3.6 1.8 7.7 2.3 11.6 1.3s7.4-3.3 9.7-6.5c2.4-3.2 3.5-7.2 3.2-11.2s-2-7.8-4.8-10.7c-2.9-2.9-6.7-4.6-10.7-4.9s-8.1.8-11.3 3.2c-3.3 2.4-5.6 5.9-6.5 9.8s-.4 8.1 1.4 11.7c.2.4.1.9-.2 1.2l-7.7 7.6v3.4c0 .6-.4 1-1 1h-5v5c0 .6-.4 1-1 1h-5v5c0 .6-.4 1-1 1h-3.6l-1.4 1.4zm45-40.1c-.7 0-1.3-.1-1.9-.4-.9-.4-1.7-1-2.2-1.8s-.8-1.8-.8-2.8.3-1.9.8-2.8c.5-.8 1.3-1.5 2.2-1.8.9-.4 1.8-.5 2.8-.3s1.9.7 2.6 1.3c.5.5.8 1 1.1 1.6s.4 1.3.4 1.9c0 .7-.1 1.3-.4 1.9s-.6 1.2-1.1 1.6c-.7.7-1.6 1.2-2.6 1.3-.3.3-.6.3-.9.3zm0-8c-.4 0-.8.1-1.2.2-.5.2-1 .6-1.3 1.1s-.5 1.1-.5 1.7.2 1.2.5 1.7.8.9 1.3 1.1 1.1.3 1.7.2 1.1-.4 1.5-.8c.3-.3.5-.6.7-1s.2-.8.2-1.2-.1-.8-.2-1.2c-.2-.4-.4-.7-.7-1-.4-.4-1-.7-1.5-.8z"/></svg>