<svg viewBox="0 0 62 62" xmlns="http://www.w3.org/2000/svg"><path d="m61 62h-60c-.6 0-1-.4-1-1v-60c0-.6.4-1 1-1h60c.6 0 1 .4 1 1v60c0 .6-.4 1-1 1zm-59-2h58v-58h-58z"/><path d="m37.5 48h-13c-.3 0-.6-.1-.7-.3s-.3-.5-.2-.8l2-16.5c-1.7-1.1-3-2.6-3.8-4.4-.9-2-1.1-4.3-.5-6.4.5-2.1 1.8-4.1 3.6-5.4 1.7-1.4 3.9-2.1 6.1-2.1s4.4.7 6.1 2.1c1.7 1.3 3 3.3 3.6 5.4s.4 4.4-.5 6.4c-.8 1.8-2.1 3.4-3.8 4.4l2.1 16.5c0 .3-.1.6-.2.8s-.5.3-.8.3zm-11.9-2h10.7l-2.1-16c-.1-.4.1-.8.5-1 1.5-.8 2.8-2.2 3.5-3.8s.8-3.5.4-5.2-1.5-3.2-2.8-4.3-3.1-1.7-4.8-1.7c-1.8 0-3.5.6-4.9 1.7s-2.4 2.6-2.8 4.3-.3 3.5.4 5.2c.7 1.6 1.9 3 3.5 3.8.4.2.6.6.5 1z"/></svg>