<svg viewBox="0 0 128 28" xmlns="http://www.w3.org/2000/svg"><path d="m7.2 12.8c-.6 0-1.1.5-1.1 1.1s.5 1.1 1.1 1.1 1.1-.5 1.1-1.1-.5-1.1-1.1-1.1z"/><circle cx="20.4" cy="13.9" r="1.1"/><path d="m7.2 10.6c-1.8 0-3.3 1.5-3.3 3.3s1.5 3.3 3.3 3.3 3.3-1.5 3.3-3.3-1.5-3.3-3.3-3.3zm0 5.4c-1.2 0-2.2-1-2.2-2.1 0-1.2 1-2.2 2.2-2.2s2.2 1 2.2 2.2c0 1.1-1 2.1-2.2 2.1zm13.2-5.4c-1.8 0-3.3 1.5-3.3 3.3s1.5 3.3 3.3 3.3 3.3-1.5 3.3-3.3-1.5-3.3-3.3-3.3zm.1 5.4c-1.3 0-2.2-1-2.2-2.2s1-2.2 2.2-2.2 2.2 1 2.2 2.2c0 1.3-1 2.2-2.2 2.2z"/><path d="m22.7 7.3c-2.5-1.6-5.5-2.5-8.8-2.5-3.5 0-6.6.9-9 2.5l-4.2.1s1 1.3 1.3 2.7c-.8 1.1-1.3 2.4-1.3 3.9 0 3.7 3 6.7 6.7 6.7 2.1 0 4-1 5.2-2.5l1.4 2.1 1.4-2.1c.6.8 1.5 1.5 2.4 1.9 1.6.7 3.4.8 5.1.2 3.4-1.3 5.2-5.1 3.9-8.6-.1-.6-.4-1.2-.8-1.7.3-1.3 1.3-2.7 1.3-2.7zm-15.5 12c-3 0-5.4-2.4-5.4-5.4s2.4-5.4 5.4-5.4 5.4 2.4 5.4 5.4-2.4 5.4-5.4 5.4zm18.6-5.4c0 3-2.4 5.4-5.4 5.4s-5.4-2.4-5.4-5.4 2.4-5.4 5.4-5.4c3 .1 5.4 2.5 5.4 5.4zm71.1-9.2c-.7 0-1.3.6-1.3 1.3s.6 1.3 1.3 1.3 1.3-.6 1.3-1.3-.6-1.3-1.3-1.3zm-39.9 4.1c-1.5 0-2.7.7-3.6 2v-1.7h-2v14.9h2.2v-5.8c.8 1.1 1.9 1.6 3.3 1.6 2.7 0 4.5-2.2 4.5-5.7 0-3.1-1.8-5.3-4.4-5.3zm-.6 9.3c-1.7 0-2.8-1.5-2.8-3.8s1.1-3.7 2.9-3.7c1.7 0 2.7 1.4 2.7 3.7-.1 2.3-1.1 3.8-2.8 3.8zm-21.3-12.3-.2.1-2 .7v2.5h-2.2v1.7h2.1v5.5c0 2.6.9 3.7 3.1 3.7.6 0 1.1-.1 1.6-.2h.1v-1.8h-.1c-.4.1-.8.2-1 .2-1 0-1.4-.6-1.4-2.1v-5.3h2.5v-1.7h-2.5zm6.5 5v-1.7h-2v10.6h2.2v-5.4c0-2.2.9-3.5 2.7-3.5.2 0 .5 0 .8.1h.1v-1.9l-.9-.1c-1.2 0-2.3.7-2.9 1.9zm72.6-2c-3.3 0-5.3 2.1-5.3 5.6s2 5.6 5.3 5.6 5.3-2.1 5.3-5.6-2-5.6-5.3-5.6zm0 9.3c-1.8 0-3-1.5-3-3.8s1.2-3.9 3-3.9 3 1.5 3 3.9c0 2.3-1.1 3.8-3 3.8zm-9.7-4.8c-1.4-.6-1.9-1-1.9-1.7 0-.6.6-1.1 1.6-1.1.9 0 1.8.2 2.6.6l.2.1.1-1.8h-.1c-.9-.3-1.8-.4-2.6-.4-2.3 0-3.9 1.1-3.9 2.8 0 1.5 1 2.3 2.9 3.2 1.2.6 1.8.9 1.8 1.8s-.8 1.4-2 1.4c-.8 0-1.8-.2-2.7-.7l-.2-.1-.1 1.9h.1c.9.4 1.8.5 2.8.5 2.6 0 4.4-1.3 4.4-3.2 0-1.7-1.1-2.5-3-3.3zm-8.7-4.2v10.6h2.2v-10.6h-.2zm30.6-.3c-1.4.1-2.4.8-3 2v-1.7h-2v10.6h2.2v-5.4c0-2.2.9-3.5 2.7-3.5.2 0 .5 0 .8.1h.1l.1-2.1zm-37 6.4-2.8-6.1h-2.4l5.2 10.6 5.3-10.6h-2.2zm-8.7-4.7c-.8-1.1-1.9-1.7-3.3-1.7-2.6 0-4.4 2.2-4.4 5.4 0 3.3 1.8 5.7 4.4 5.7 1.5 0 2.7-.7 3.5-2v1.8h2v-15.7h-2.2zm-2.7 7.5c-1.6 0-2.7-1.4-2.7-3.8 0-2.3 1-3.8 2.6-3.8 1.8 0 2.9 1.4 2.9 3.8-.1 2.4-1.2 3.8-2.8 3.8zm-10.4-9.2c-1.3 0-2.5.2-3.5.8h-.1v1.8h.2c1-.6 2-.9 2.9-.9 1.6 0 2.5.9 2.5 2.5v.1h-1.2c-3.6 0-5.5 1.3-5.5 3.6 0 1.9 1.4 3.2 3.4 3.2 1.5 0 2.6-.6 3.5-1.7v1.5h2v-6.4c-.2-3-1.5-4.5-4.2-4.5zm1.9 6.4c0 1.8-1.1 3-2.8 3-1 0-1.8-.7-1.8-1.7 0-1.3 1.2-2 3.5-2h1.1zm-21.2-10.5c-.7 0-1.3.6-1.3 1.3s.6 1.3 1.3 1.3 1.3-.6 1.3-1.3-.7-1.3-1.3-1.3zm-1 4.4v10.6h2v-10.6h-.1z"/></svg>