<svg viewBox="0 0 121 28" xmlns="http://www.w3.org/2000/svg"><path d="m48.6 4.1c1-.3 2.2.4 2.3 1.5.2 1-.6 2.1-1.6 2.1-1 .1-1.9-.6-2-1.6-.2-.9.4-1.8 1.3-2zm-12.1.4h1.8c.4 0 .8.1 1.1.4s.3.8.3 1.2v6.3c.4 0 1 .1 1.3-.3.7-1.1 1.4-2.2 2.2-3.4h3.6c-1 1.4-1.9 2.9-2.9 4.3-.2.3-.4.5-.6.8.4.4.7 1 1 1.5.8 1.5 1.7 2.9 2.6 4.4h-2.9c-.6 0-1.1-.3-1.3-.8-.6-1.2-1.2-2.3-1.9-3.5-.2-.3-.7-.2-1-.3v4.6h-3.2c-.1-5-.1-10.1-.1-15.2zm19.2 5.5c.7-.8 1.7-1.3 2.8-1.4 1.2-.1 2.4 0 3.3.9.8.7 1.1 1.8 1.2 2.8v7.6h-1.9c-.4 0-.9-.2-1.1-.6-.3-.5-.2-1.1-.2-1.6v-4.5c0-.6-.1-1.3-.8-1.5-.8-.2-1.8 0-2.4.6s-.9 1.5-.9 2.3v5.3h-3.2v-11c.8 0 1.6-.1 2.3.2.6-.1.8.4.9.9zm26.2.2c1.5-1.5 4-2 6.1-1.5.8.2 1.6.6 2.1 1.3.4.7.2 1.6.3 2.5h-1.9c-.4 0-.7-.4-.9-.8-.1-.3-.4-.4-.7-.5-1.1-.3-2.4.2-3 1.2s-.7 2.2-.2 3.2 1.5 1.6 2.6 1.6c1.3.1 2.5-.6 3.4-1.5.4.7.9 1.5 1.3 2.2-2.2 2.5-6.5 2.8-8.9.5-2.4-2-2.4-6-.2-8.2zm24.9-.1c.7-.8 1.6-1.4 2.6-1.5s2.1 0 2.9.7c.4.3.6.7.8 1.1.7-1 1.9-1.8 3.2-1.9 1.1-.1 2.4.1 3.2 1.1.7.9.9 2.1.9 3.2v7c-.8 0-1.6.1-2.4-.2-.6-.3-.7-1-.7-1.6v-5.1c0-.5-.1-1.2-.7-1.5-.7-.3-1.5 0-2.1.5-.7.7-1 1.7-1 2.7v5.2h-3.1v-6.5c0-.5 0-1.1-.4-1.5s-1-.4-1.5-.3c-.7.2-1.2.9-1.4 1.6-.3.8-.4 1.6-.4 2.5v4.3h-3v-11c.8 0 1.6-.1 2.4.2.4.1.6.6.7 1zm-59.2-1.4c.8 0 1.6-.1 2.3.1.6.2.8.8.8 1.4v9.5h-3.1c.1-3.6 0-7.3 0-11zm-31.6-.1c1.8-.3 3.8 0 5.2 1.3 2.3 2 2.4 5.9.4 8.1-2.2 2.5-6.6 2.5-8.7 0-2.1-2.4-1.8-6.5.8-8.4.6-.5 1.5-.8 2.3-1zm.5 2.7c-.7.2-1.2.7-1.5 1.3-.7 1.4-.4 3.4 1 4.3 1.1.7 2.7.3 3.4-.8.8-1.2.7-2.9-.2-4-.6-.8-1.7-1.1-2.7-.8z"/><path d="m28.3 8.6c1.6-.3 3.3-.1 4.7.8 1.2.8 2 2 2.3 3.3.4 1.8 0 3.8-1.2 5.2-2.2 2.5-6.5 2.6-8.8.1-2-2.2-1.9-5.9.1-8 .8-.6 1.8-1.2 2.9-1.4zm.6 2.7c-.9.2-1.6 1.1-1.8 2-.3 1.3 0 2.9 1.2 3.6 1 .6 2.3.5 3.1-.3.7-.6 1-1.6.9-2.6 0-.9-.4-1.7-1.1-2.3-.7-.5-1.5-.6-2.3-.4zm66.8-2.7c1.8-.3 3.8.1 5.2 1.4 2.2 2 2.4 5.9.3 8.1-2.2 2.4-6.5 2.4-8.7 0-2-2.2-1.9-6 .3-8 .8-.8 1.9-1.3 2.9-1.5zm.5 2.7c-.7.2-1.3.7-1.6 1.3-.6 1.3-.5 3 .5 4 1 .9 2.7.9 3.6-.1.6-.6.8-1.5.8-2.4s-.4-1.9-1.2-2.5c-.5-.4-1.3-.5-2.1-.3zm-29.2-2.5c1.6-.6 3.7-.5 5 .7.2-.4.5-.7.9-.8.6-.1 1.3 0 1.9 0v10.1c0 1.2-.4 2.5-1.2 3.4-1.1 1.2-2.8 1.7-4.4 1.8-1.5 0-3-.3-4.3-1.1.2-.6.4-1.3.8-1.8.1-.3.5-.5.9-.4.5.1 1 .3 1.6.4.9.1 2 .1 2.8-.5.6-.5.8-1.3.7-2-1 .8-2.4 1-3.7.8s-2.4-1-3.1-2.1c-.9-1.4-1.1-3.3-.7-4.9.4-1.5 1.3-3 2.8-3.6zm1.6 2.6c-.7.3-1.1 1-1.2 1.7-.2 1 0 2 .5 2.8.8 1 2.6 1.1 3.3 0 .5-.7.5-1.7.5-2.6-.1-.7-.4-1.5-1.1-1.9-.6-.2-1.3-.2-2 0zm-68.5-5.3c0-.9.7-1.6 1.6-1.6h3.9c1.3 0 2.6.4 3.5 1.3 1.4 1.4 1.3 4-.1 5.3-.2.1-.3.3-.5.4.7.4 1.4.9 1.8 1.7.7 1.3.6 3.1-.3 4.3-.9 1.4-2.7 2-4.3 2h-5.6zm3.2 1.2c-.2.2-.2.5-.3.9v2.4h2.4c.5 0 1-.2 1.3-.6.6-.8.5-2.1-.3-2.7-.6-.4-1.3-.3-1.9-.3-.4 0-.9 0-1.2.3zm.1 5.9c-.3.2-.4.6-.4.9v3h2.7c.6 0 1.3-.3 1.6-.9.4-.9.4-2.1-.4-2.7-.6-.6-1.4-.5-2.2-.5-.4 0-.9-.1-1.3.2zm74 3c1.1-.3 2.3.5 2.3 1.6.1 1-.7 1.9-1.6 2-1 .1-1.9-.6-2-1.6-.1-.8.5-1.7 1.3-2z"/></svg>