<svg xmlns="http://www.w3.org/2000/svg" viewBox="0 0 90 28"><path d="M46.9 7c0 1-.8 1.8-1.8 1.8S43.3 8 43.3 7s.8-1.8 1.8-1.8c1.1 0 1.8.8 1.8 1.8zm-7.4 3.7v.5s-.9-1.2-2.7-1.2c-3 0-5.4 2.3-5.4 5.6 0 3.2 2.3 5.6 5.4 5.6 1.9 0 2.7-1.1 2.7-1.1v.5c0 .2.2.4.4.4h2.3V10.3h-2.3c-.2 0-.4.2-.4.4zm0 6.8c-.4.6-1.2 1.1-2.3 1.1-1.8 0-3.1-1.1-3.1-3s1.4-3 3.1-3c1 0 1.9.6 2.3 1.1v3.8zm4.3-7.2h2.7v10.5h-2.7V10.3zm39.9-.3c-1.8 0-2.7 1.1-2.7 1.1V5.2h-2.7v15.6h2.3c.2 0 .4-.2.4-.4V20s.9 1.1 2.7 1.1c3 0 5.4-2.4 5.4-5.6 0-3.1-2.4-5.5-5.4-5.5zm-.4 8.6c-1 0-1.8-.5-2.3-1.1v-3.8c.4-.6 1.3-1.1 2.3-1.1 1.8 0 3.1 1.1 3.1 3s-1.3 3-3.1 3zm-6.3-4v6.3h-2.7v-6c0-1.7-.6-2.4-2.1-2.4-.8 0-1.6.4-2.2 1v7.3h-2.7V10.3h2.1c.2 0 .4.2.4.4v.5c.8-.8 1.8-1.1 2.8-1.1 1.2 0 2.1.3 2.9 1 1.1.7 1.5 1.7 1.5 3.5zM60.9 10c-1.8 0-2.7 1.1-2.7 1.1V5.2h-2.7v15.6h2.3c.2 0 .4-.2.4-.4V20s.9 1.1 2.7 1.1c3 0 5.4-2.4 5.4-5.6 0-3.1-2.4-5.5-5.4-5.5zm-.4 8.6c-1 0-1.8-.5-2.3-1.1v-3.8c.4-.6 1.3-1.1 2.3-1.1 1.8 0 3.1 1.1 3.1 3s-1.4 3-3.1 3zM53.2 10c.8 0 1.2.1 1.2.1v2.5s-2.2-.8-3.6.8v7.4h-2.7V10.3h2.3c.2 0 .4.2.4.4v.5c.5-.6 1.6-1.2 2.4-1.2zm-27.7 9.9c-.1-.3-.3-.7-.4-1-.2-.5-.5-1-.6-1.4-1.9-4.2-4-8.5-6.2-12.7l-.1-.2c-.2-.4-.5-.9-.7-1.3-.3-.5-.6-1-1-1.5C15.6.6 14.3 0 13 0c-1.4 0-2.6.6-3.6 1.7-.4.5-.7 1-1 1.5-.2.5-.5.9-.7 1.3l-.1.2c-2.1 4.2-4.2 8.5-6.2 12.7v.1c-.2.5-.4.9-.6 1.4-.1.3-.3.6-.4 1-.4 1-.5 2-.3 3 .3 2.1 1.7 3.9 3.6 4.6.7.3 1.5.5 2.3.5.2 0 .5 0 .7-.1.9-.1 1.9-.4 2.8-.9 1.1-.6 2.2-1.6 3.5-2.9 1.2 1.3 2.3 2.3 3.5 2.9.9.5 1.9.8 2.8.9.2 0 .5.1.7.1.8 0 1.6-.1 2.3-.5 2-.8 3.3-2.6 3.6-4.6 0-1-.1-2-.4-3zm-12.6 1.5c-1.5-1.9-2.5-3.7-2.8-5.2-.1-.6-.2-1.2-.1-1.7s.2-.8.5-1.2c.5-.8 1.4-1.2 2.4-1.2s2 .5 2.4 1.2a3.337 3.337 0 01.4 2.9c-.3 1.4-1.3 3.2-2.8 5.2zM24 22.7c-.2 1.5-1.2 2.7-2.5 3.3-.7.3-1.4.4-2.1.3-.7-.1-1.4-.3-2.1-.7-1-.6-2-1.4-3.2-2.7 1.8-2.3 2.9-4.3 3.4-6.2.2-.9.2-1.7.1-2.4s-.4-1.3-.8-1.9c-.9-1.3-2.3-2-3.9-2s-3.1.8-3.9 2c-.4.6-.6 1.2-.8 1.9-.1.7-.1 1.5.1 2.4.4 1.9 1.6 4 3.4 6.2-1.1 1.3-2.2 2.1-3.2 2.7-.7.4-1.4.6-2.1.7-.8.1-1.5 0-2.1-.3-1.3-.6-2.3-1.8-2.5-3.3-.1-.7 0-1.4.3-2.2.1-.3.2-.6.4-.9.2-.5.4-.9.6-1.4v-.1C5 14 7.1 9.7 9.2 5.6l.1-.2c.2-.4.5-.8.7-1.3.2-.5.5-.9.8-1.2.6-.7 1.4-1 2.2-1 .9 0 1.6.4 2.2 1 .3.4.6.8.8 1.2.2.4.5.9.7 1.3l.1.2c2.1 4.2 4.2 8.4 6.1 12.6.2.5.4.9.6 1.4.1.3.3.6.4.9.1.7.2 1.5.1 2.2z" /></svg>
