<svg version="1.1" xmlns="http://www.w3.org/2000/svg" x="0" y="0" xml:space="preserve" viewBox="0 0 20 21"><style>.st0{fill:#5d7ea0}</style><path class="st0" d="M19.4 18.1c-.2 0-.4-.1-.6-.3L13 11.3l-2.4 2.5c-.3.3-.8.3-1.1 0L7 11.3l-5.8 6.5c-.3.3-.8.3-1.1.1-.3-.3-.3-.8-.1-1.1l6-6.6L.1 4.1c-.3-.3-.3-.8 0-1.1.3-.3.8-.3 1.1 0l8.8 9.1L18.8 3c.3-.3.8-.3 1.1 0 .3.3.3.8 0 1.1L14 10.2l5.9 6.6c.3.3.2.8-.1 1.1-.1.2-.2.2-.4.2z"/><path class="st0" d="M19.4 18.1H.6c-.4 0-.8-.3-.8-.8V3.6c0-.4.3-.8.8-.8h18.8c.4 0 .8.3.8.8v13.8c-.1.4-.4.7-.8.7zm-18-1.5h17.2V4.4H1.4v12.2z"/></svg>
