<svg viewBox="0 0 62 62" xmlns="http://www.w3.org/2000/svg"><path d="m58.8 33.2c-1.3-1.4-3-2.3-4.8-2.8v-19.5c0-.4-.2-.7-.6-.9l-18-8.9c-.1 0-.2-.1-.2-.1h-.4c-.1 0-.2 0-.2.1l-17.6 8.7-15.6-7.7c-.3-.1-.6-.1-.9.1-.3.1-.5.5-.5.8v40.1c0 .4.2.7.6.9l16 7.9c.1 0 .2.1.2.1h.4c.1 0 .1 0 .2-.1l17.5-7.7 6.6 3.6c2.8 6.8 8.5 12.5 8.8 12.8.2.2.5.3.7.3s.5-.1.7-.3c.4-.3 10.3-10.3 10.3-19.6 0-2.9-1.2-5.7-3.2-7.8zm-42.8 16.2-14-6.9v-37.9l14 6.9zm18-7-16 7v-37.9l16-7.9zm2 .1v-38.9l16 7.9v18.5h-1c-2.9 0-5.7 1.1-7.8 3.2-2 2-3.2 4.9-3.2 7.8 0 1.3.2 2.7.6 4zm15 16c-2.2-2.4-9-10.4-9-17.5 0-2.4 1-4.7 2.6-6.4 1.7-1.7 4-2.6 6.4-2.6s4.7.9 6.4 2.6 2.6 4 2.6 6.4c0 7.1-6.8 15.1-9 17.5z"/><path d="m51 37c-2.2 0-4 1.8-4 4s1.8 4 4 4 4-1.8 4-4-1.8-4-4-4zm0 6c-1.1 0-2-.9-2-2s.9-2 2-2 2 .9 2 2-.9 2-2 2z"/></svg>