<svg version="1.1" xmlns="http://www.w3.org/2000/svg" x="0" y="0" xml:space="preserve" viewBox="0 0 20 21"><style>.st0{fill:#1e436a}</style><path class="st0" d="M6.2 20.6H6h-.1L.3 18.7c-.3-.1-.5-.4-.5-.7V9.2c.1-.2.2-.4.4-.6.2-.1.4-.2.7-.1l5.4 1.8 1.1-.3c.4-.1.8.1.9.5.1.4-.1.8-.5.9l-.8.3v7.2l6-1.5v-5c0-.4.3-.8.8-.8s.8.3.8.8v5l4.1 1.1v-6.9l-3.2-1.1c-.4-.1-.6-.6-.5-.9 0-.4.5-.6.9-.5l3.8 1.2c.3.1.5.4.5.7v8.4c0 .2-.1.5-.3.6-.2.1-.4.2-.7.1l-5.4-1.5-7.3 1.9h-.1c-.1.1-.1.1-.2.1zm-4.8-3.2l4.1 1.4v-7.2l-4.1-1.4v7.2z"/><path class="st0" d="M10 14.4c-.2 0-.4-.1-.5-.2-.2-.2-4.6-4.5-4.6-8.7 0-1.4.5-2.7 1.5-3.6C7.4.9 8.7.4 10 .4c1.3 0 2.7.5 3.6 1.5 1 1 1.5 2.3 1.5 3.6 0 4.2-4.4 8.5-4.6 8.7-.1.1-.3.2-.5.2zm0-12.5c-1 0-1.9.4-2.6 1.1-.6.6-1 1.5-1 2.5 0 2.8 2.5 5.8 3.6 7 1.1-1.2 3.6-4.3 3.6-7 0-1-.4-1.9-1.1-2.6-.6-.6-1.5-1-2.5-1z"/><path class="st0" d="M10 7.5c-1.1 0-2-.9-2-2s.9-2 2-2 2 .9 2 2-.9 2-2 2zM10 5c-.3 0-.5.2-.5.5s.2.5.5.5.5-.2.5-.5-.2-.5-.5-.5z"/></svg>
