<svg width="20" height="21" viewBox="0 0 20 21" fill="none" xmlns="http://www.w3.org/2000/svg">
    <g clip-path="url(#clip0)">
        <path d="M7.625 10.75L6.25 11.0938M6.25 11.0938L0.625 9.21875V17.9688L6.25 19.875M6.25 11.0938V19.875M6.25 19.875L13.75 17.9688M13.75 17.9688L19.375 19.5312V11.0938L15.625 9.84375M13.75 17.9688V12.375" stroke="#1E436A" stroke-width="1.5" stroke-miterlimit="10" stroke-linecap="round" stroke-linejoin="round"/>
        <path d="M10 1.125C8.83968 1.125 7.72688 1.58594 6.90641 2.40641C6.08594 3.22688 5.625 4.33968 5.625 5.5C5.625 9.4375 10 13.625 10 13.625C10 13.625 14.375 9.4375 14.375 5.5C14.375 4.33968 13.9141 3.22688 13.0936 2.40641C12.2731 1.58594 11.1603 1.125 10 1.125V1.125Z" stroke="#1E436A" stroke-width="1.5" stroke-miterlimit="10" stroke-linecap="round" stroke-linejoin="round"/>
        <path d="M10 6.75C10.6904 6.75 11.25 6.19036 11.25 5.5C11.25 4.80964 10.6904 4.25 10 4.25C9.30964 4.25 8.75 4.80964 8.75 5.5C8.75 6.19036 9.30964 6.75 10 6.75Z" stroke="#1E436A" stroke-width="1.5" stroke-miterlimit="10" stroke-linecap="round" stroke-linejoin="round"/>
    </g>
    <defs>
        <clipPath id="clip0">
            <rect width="20" height="20" fill="white" transform="translate(0 0.5)"/>
        </clipPath>
    </defs>
</svg>
