<svg xmlns="http://www.w3.org/2000/svg" viewBox="0 0 62 62"><path  d="M61.3 32l-12-4c-.5-.2-1.1.1-1.3.6-.2.5.1 1.1.6 1.3L60 33.6v25l-16-4.4V37c0-.6-.4-1-1-1s-1 .4-1 1v17.1l-22 5.6v-26l2.9-.7c3.5 5 7.1 8.5 7.4 8.8.2.2.4.3.7.3s.5-.1.7-.3C32.3 41.2 46 27.9 46 15c0-4-1.6-7.8-4.4-10.6C38.8 1.6 35 0 31 0s-7.8 1.6-10.6 4.4C17.6 7.2 16 11 16 15c0 5.7 2.7 11.5 5.7 16.2l-2.7.7L1.3 26c-.3-.1-.6-.1-.9.1-.2.2-.4.5-.4.8v28c0 .4.3.8.7.9l18 6.1h.6l23.7-6 17.7 4.9c.3.1.6 0 .9-.2.2-.2.4-.5.4-.8v-27c0-.3-.3-.7-.7-.8zM21.8 5.8C24.3 3.4 27.5 2 31 2c3.5 0 6.7 1.4 9.2 3.8C42.6 8.3 44 11.5 44 15c0 10.4-10.2 21.7-13 24.6-1.3-1.3-4.1-4.3-6.7-8.2 0-.1-.1-.1-.1-.2C21 26.5 18 20.6 18 15c0-3.5 1.4-6.7 3.8-9.2zM18 59.6L2 54.2V28.3l16 5.3v26z"/><path d="M31 20c2.8 0 5-2.2 5-5s-2.2-5-5-5-5 2.2-5 5 2.2 5 5 5zm0-8c1.7 0 3 1.3 3 3s-1.3 3-3 3-3-1.3-3-3 1.3-3 3-3z"/></svg>