<svg viewBox="0 0 62 62" xmlns="http://www.w3.org/2000/svg"><path d="m37.1 14.1c-1.8-1.3-3.9-2.1-6.1-2.1s-4.4.7-6.1 2.1c-1.7 1.3-3 3.3-3.6 5.4s-.4 4.4.5 6.4c.8 1.8 2.1 3.4 3.8 4.4l-2 16.5c0 .3.1.6.2.8s.5.3.7.3h13c.3 0 .6-.1.8-.3s.3-.5.2-.8l-2.1-16.5c1.7-1.1 3-2.6 3.8-4.4.9-2 1.1-4.3.5-6.4s-1.9-4-3.6-5.4zm1.2 11.1c-.7 1.6-1.9 3-3.5 3.8-.4.2-.6.6-.5 1l2.1 16h-10.8l2-16c0-.4-.2-.8-.5-1-1.5-.8-2.8-2.2-3.5-3.8s-.8-3.4-.4-5.2c.4-1.7 1.4-3.2 2.8-4.3s3.1-1.7 4.9-1.7 3.5.6 4.9 1.7 2.4 2.6 2.8 4.3c.5 1.7.4 3.6-.3 5.2z"/><path d="m59.2 2.8c-1.8-1.8-4.2-2.8-6.7-2.8h-43c-2.5 0-4.9 1-6.7 2.8-1.8 1.7-2.8 4.2-2.8 6.7v43c0 2.5 1 5 2.8 6.7 1.8 1.8 4.2 2.8 6.7 2.8h43c2.5 0 4.9-1 6.7-2.8 1.8-1.7 2.8-4.2 2.8-6.7v-43c0-2.5-1-5-2.8-6.7zm.8 49.7c0 2-.8 3.9-2.2 5.3s-3.3 2.2-5.3 2.2h-43c-2 0-3.9-.8-5.3-2.2s-2.2-3.3-2.2-5.3v-43c0-2 .8-3.9 2.2-5.3s3.3-2.2 5.3-2.2h43c2 0 3.9.8 5.3 2.2s2.2 3.3 2.2 5.3z"/></svg>