<svg viewBox="0 0 125 174" fill="none" xmlns="http://www.w3.org/2000/svg">
<path d="M62.2624 173.611C42.142 173.611 21.9423 173.611 1.82193 173.611C1.58428 173.611 1.26743 173.611 1.02978 173.611C0.396071 173.611 0 173.136 0 172.503C0 171.395 0 170.366 0 169.259C0 168.784 0.237643 168.467 0.554499 168.151C4.91128 163.719 9.34728 159.366 13.7041 154.935C13.9417 154.697 14.1001 154.381 14.1001 154.064C14.0209 116.157 13.8625 78.2504 13.8625 40.3435C13.8625 34.5665 15.3676 29.106 18.1401 24.0412C21.6255 17.6311 26.5368 12.5663 32.6363 8.6094C39.211 4.33598 46.4987 1.72444 54.2617 0.616516C64.1635 -0.807959 73.9069 0.220829 83.2541 3.86115C90.225 6.55183 96.2453 10.5087 101.315 16.1275C105.989 21.2714 109.078 27.2067 110.425 34.0917C110.662 35.3579 110.821 36.6241 110.9 37.8903C111.375 43.1134 111.138 48.4156 111.138 53.6386C111.217 76.3511 111.217 99.0636 111.217 121.776C111.217 132.301 111.217 142.747 111.217 153.273C111.217 153.748 111.375 154.064 111.692 154.302C115.97 158.575 120.326 162.769 124.604 167.043C124.921 167.359 125 167.597 125 167.992C125 169.417 125 170.92 125 172.345C125 173.136 124.921 173.215 124.208 173.215C123.574 173.215 123.02 173.295 122.386 173.295C102.345 173.295 82.3036 173.295 62.2624 173.295C62.2624 173.453 62.2624 173.532 62.2624 173.611ZM109.712 92.4952C109.712 92.1786 109.712 92.0203 109.712 91.8621C109.712 85.2145 109.712 78.6461 109.712 71.9986C109.632 61.1567 109.87 50.3149 109.553 39.473C109.395 32.9838 107.414 26.9693 103.85 21.588C100.048 15.8109 94.9778 11.3792 88.9576 8.05544C81.5114 3.94029 73.5108 1.88272 64.9557 1.48703C56.1629 1.09134 47.687 2.67409 39.6071 6.31442C32.7155 9.47992 26.8536 13.9116 22.2592 20.0052C17.6648 26.0988 15.2883 33.0629 15.2091 40.6601C15.1299 56.8041 15.2883 72.9482 15.2883 89.0922C15.2883 89.2505 15.2883 89.4088 15.2883 89.6462C15.4468 89.5671 15.526 89.4879 15.6052 89.4879C23.685 84.5814 31.6857 79.754 39.7655 74.8475C39.924 74.7684 40.0824 74.531 40.1616 74.2935C41.1914 71.2863 42.142 68.2791 43.1717 65.2719C43.5678 64.0057 44.0431 62.8186 44.36 61.5524C44.5184 60.9193 44.8352 60.6027 45.3897 60.3653C46.8156 59.7322 48.2415 59.0991 49.6673 58.466C49.8257 58.3869 49.9842 58.1495 50.0634 57.9121C50.4594 55.8545 50.7763 53.7969 51.1724 51.6602C51.2516 51.1062 51.4892 50.5523 51.9645 50.1566C52.3606 49.84 52.6774 49.4444 53.0735 49.1278C54.1825 48.0199 55.2915 46.9911 56.4005 45.8832C57.1134 45.2501 57.4303 45.1709 58.1432 45.5666C62.1039 47.9407 65.9854 50.3149 69.9461 52.689C70.1838 52.8473 70.5006 53.0847 70.5799 53.3221C73.4316 58.0703 76.2041 62.7395 79.0558 67.4877C79.2934 67.8834 79.2934 68.3582 79.2934 68.7539C79.2934 69.0705 79.2142 69.387 79.2142 69.7036C79.2142 69.8618 79.2934 70.0201 79.3726 70.0993C82.8581 73.2647 86.3435 76.5094 89.8289 79.6749C90.0666 79.9123 90.3834 80.0706 90.621 80.1497C92.8391 80.7037 95.057 81.2576 97.275 81.8907C97.7503 82.049 98.2256 82.2864 98.5425 82.5238C102.186 85.6102 105.751 88.7757 109.316 91.9412C109.474 92.2578 109.553 92.3369 109.712 92.4952ZM15.2883 128.344C15.2883 128.582 15.2883 128.74 15.2883 128.898C15.2883 133.172 15.3676 137.366 15.3676 141.64C15.3676 145.517 15.3676 149.474 15.4468 153.352C15.4468 154.064 15.6052 154.143 16.2389 154.143C20.5957 154.143 24.8733 154.143 29.23 154.064C38.102 154.064 46.974 153.985 55.846 153.985C60.7573 153.985 65.5894 153.906 70.5006 153.906C77.2338 153.906 84.0463 153.827 90.7795 153.827C96.9582 153.827 103.137 153.748 109.316 153.748C109.474 153.748 109.632 153.748 109.791 153.748C109.791 139.899 109.791 126.129 109.791 112.359C109.553 112.359 109.395 112.28 109.236 112.28C99.6515 110.934 90.0666 109.668 80.4816 108.323C79.9271 108.244 79.5311 108.323 79.0558 108.56C69.7085 113.941 60.282 119.323 50.8555 124.783C50.1426 125.179 49.4297 125.496 48.5583 125.575C43.251 125.97 37.8644 126.445 32.557 126.841C27.5665 127.237 22.6553 127.632 17.6648 128.028C16.8726 128.186 16.0805 128.265 15.2883 128.344ZM123.257 167.834C123.257 167.755 123.337 167.755 123.337 167.676C123.257 167.597 123.099 167.518 123.02 167.359C120.406 164.827 117.871 162.294 115.257 159.683C113.752 158.179 112.247 156.676 110.662 155.172C110.583 155.093 110.345 155.014 110.187 155.014C109.87 155.014 109.553 155.093 109.236 155.093C86.3435 155.172 63.3714 155.33 40.4785 155.409C32.0818 155.409 23.7643 155.489 15.3676 155.568C15.1299 155.568 14.8923 155.726 14.7338 155.884C10.7731 159.841 6.89164 163.719 2.93093 167.676C2.85171 167.755 2.69328 167.913 2.53485 168.071C42.8549 167.992 83.0165 167.913 123.257 167.834ZM86.1058 107.69C86.0266 107.531 86.0266 107.452 85.9474 107.373C82.6204 101.359 79.2934 95.265 75.9664 89.2505C75.7288 88.7757 75.6496 88.3009 75.7288 87.7469C76.4417 81.495 77.1546 75.2432 77.7884 68.9122C77.7884 68.6748 77.7883 68.4374 77.6299 68.2791C74.9366 63.6891 72.1641 59.0991 69.3916 54.5092C69.3124 54.3509 69.0748 54.1135 68.9164 54.0343C65.7478 52.135 62.5792 50.1566 59.4107 48.2573C59.3314 48.1782 59.173 48.1782 59.0146 48.0199C59.0938 48.2573 59.173 48.4156 59.2522 48.5738C60.5989 51.2645 62.0247 53.9552 63.3714 56.6459C63.5298 56.9624 63.609 57.3581 63.5298 57.5955C62.6584 60.761 61.7079 63.9265 60.7573 67.092C60.282 68.6748 59.9651 70.2575 59.0938 71.7611C54.8954 79.1209 50.8555 86.639 46.6572 94.1571C46.578 94.3153 46.4987 94.4736 46.4195 94.6319C46.578 94.711 46.7364 94.7902 46.8948 94.8693C51.0932 96.8477 55.3707 98.747 59.5691 100.725C62.7377 102.15 65.827 103.574 68.9956 104.999C69.3916 105.157 69.7877 105.395 70.1838 105.474C74.0653 106.028 77.8676 106.582 81.7491 107.056C83.1749 107.294 84.6008 107.452 86.1058 107.69ZM15.2883 95.6607C15.2883 106.028 15.2883 116.395 15.2883 126.762C15.526 126.762 15.6844 126.762 15.9221 126.762C20.3581 126.366 24.794 126.049 29.23 125.654C35.6464 125.1 42.142 124.625 48.5583 124.071C48.9544 124.071 49.4297 123.913 49.8257 123.675C53.9449 121.38 58.064 119.006 62.1039 116.632C62.2624 116.553 62.3416 116.474 62.5 116.395C62.3416 116.316 62.1832 116.236 62.0247 116.157C50.4594 109.589 38.815 103.1 27.2497 96.6103C27.012 96.452 26.6952 96.3729 26.3783 96.3729C24.0019 96.2146 21.5463 96.1355 19.1698 95.9772C17.9816 95.8189 16.635 95.7398 15.2883 95.6607ZM51.4892 57.6747C52.3606 57.279 53.1527 56.8833 53.9449 56.5667C54.6578 56.2502 55.0539 56.3293 55.2915 56.725C55.4499 57.1998 55.2123 57.5164 54.5786 57.8329C51.8061 59.0991 48.9544 60.3653 46.1819 61.6315C45.865 61.7898 45.7066 61.9481 45.6274 62.2646C44.2807 66.4589 42.8549 70.6532 41.5082 74.9266C41.3498 75.4806 41.033 75.7971 40.5577 76.1137C37.3891 78.013 34.2205 79.9123 31.052 81.8116C25.903 84.898 20.7541 88.0635 15.6052 91.1498C15.2883 91.3081 15.2091 91.5455 15.2091 91.8621C15.2091 92.4952 15.2091 93.0491 15.2091 93.6822C15.2091 94.4736 15.0507 94.3945 15.9221 94.3945C18.0608 94.5527 20.1996 94.6319 22.3384 94.711C23.685 94.7901 24.9525 94.8693 26.2991 94.8693C26.9328 94.8693 27.4081 95.0276 27.8834 95.265C29.0716 95.9772 30.339 96.6103 31.5273 97.3226C32.0025 97.6391 32.4778 97.9557 33.0323 97.56C33.1115 97.4808 33.1908 97.4808 33.27 97.4808C36.7554 96.6103 40.32 95.8189 43.8847 94.9484C44.5184 94.7902 44.8352 94.5527 45.1521 93.9988C49.4297 86.1642 53.7072 78.4087 57.9848 70.6532C58.1432 70.4158 58.3017 70.0992 58.3809 69.7827C59.5691 65.7467 60.7573 61.7107 61.9455 57.5955C62.0247 57.3581 61.9455 57.0416 61.8663 56.8041C60.282 53.7178 58.7769 50.7106 57.1927 47.6242C57.1134 47.4659 57.0342 47.3868 56.955 47.2285C56.8758 47.2285 56.8758 47.2285 56.8758 47.3076C55.9252 48.1782 55.0539 49.207 54.0241 49.9983C52.9943 51.0271 52.2022 52.0559 52.2022 53.5595V53.6386C51.9645 54.984 51.7269 56.2502 51.4892 57.6747ZM109.712 110.934C109.712 110.776 109.712 110.697 109.712 110.618C109.712 105.315 109.712 100.092 109.712 94.7902C109.712 94.6319 109.553 94.3945 109.474 94.2362C105.513 90.7541 101.553 87.2721 97.5919 83.8692C97.4335 83.7109 97.1958 83.5526 96.9582 83.5526C94.661 82.9195 92.3638 82.3656 90.0666 81.7325C89.6705 81.6533 89.2744 81.4159 89.0368 81.1785C85.789 78.2504 82.6204 75.3223 79.4519 72.3942C79.2934 72.236 79.135 72.1568 78.9766 71.9986C78.8973 72.8691 78.8181 73.5813 78.7389 74.3727C78.2636 78.8044 77.7091 83.3152 77.2338 87.7469C77.1546 88.1426 77.2338 88.4592 77.4715 88.8548C80.8777 95.0276 84.2839 101.2 87.6109 107.373C87.8485 107.848 88.1654 108.006 88.7199 108.085C94.5818 108.877 100.444 109.668 106.226 110.459C107.335 110.618 108.523 110.776 109.712 110.934ZM123.574 169.259C82.7788 169.338 42.0627 169.496 1.42586 169.575C1.42586 170.446 1.42586 171.316 1.42586 172.187C42.142 172.108 82.8581 172.028 123.574 172.028C123.574 171.079 123.574 170.208 123.574 169.259ZM77.2338 108.006V107.927C75.7288 107.69 74.2237 107.531 72.7186 107.294C71.2928 107.056 69.7877 107.056 68.3619 106.344C60.9949 102.862 53.628 99.5384 46.1819 96.1355C45.9442 96.0564 45.7066 95.9772 45.469 96.0564C41.8251 96.9269 38.1812 97.7974 34.6166 98.6679C34.5374 98.6679 34.379 98.747 34.2205 98.8262C34.379 98.9053 34.5374 98.9844 34.6958 99.0636C44.36 104.524 54.0241 109.985 63.6882 115.366C64.0051 115.524 64.1635 115.524 64.4804 115.366C68.2034 113.229 72.0057 111.092 75.7288 108.877C76.2041 108.639 76.7586 108.323 77.2338 108.006Z" fill="white"/>
</svg>
