<svg viewBox="0 0 240 334" fill="none" xmlns="http://www.w3.org/2000/svg">
<path d="M119.544 333.333C80.9126 333.333 42.1293 333.333 3.4981 333.333C3.04183 333.333 2.43346 333.333 1.97719 333.333C0.760456 333.333 0 332.422 0 331.206C0 329.079 0 327.104 0 324.976C0 324.065 0.456274 323.457 1.06464 322.849C9.42966 314.34 17.9468 305.983 26.3118 297.475C26.7681 297.019 27.0722 296.411 27.0722 295.803C26.9202 223.022 26.616 150.241 26.616 77.4596C26.616 66.3677 29.5057 55.8836 34.8289 46.1591C41.5209 33.8517 50.9506 24.1273 62.6616 16.5301C75.2852 8.32508 89.2776 3.31093 104.183 1.18371C123.194 -1.55128 141.901 0.423992 159.848 7.41342C173.232 12.5795 184.791 20.1767 194.525 30.9647C203.498 40.8411 209.43 52.2369 212.015 65.456C212.471 67.8871 212.776 70.3182 212.928 72.7494C213.84 82.7777 213.384 92.9579 213.384 102.986C213.536 146.594 213.536 190.202 213.536 233.81C213.536 254.019 213.536 274.075 213.536 294.284C213.536 295.195 213.84 295.803 214.449 296.259C222.662 304.464 231.027 312.517 239.24 320.722C239.848 321.33 240 321.786 240 322.545C240 325.28 240 328.167 240 330.902C240 332.422 239.848 332.574 238.479 332.574C237.262 332.574 236.198 332.726 234.981 332.726C196.502 332.726 158.023 332.726 119.544 332.726C119.544 333.029 119.544 333.181 119.544 333.333ZM210.646 177.591C210.646 176.983 210.646 176.679 210.646 176.375C210.646 163.612 210.646 151.001 210.646 138.237C210.494 117.421 210.951 96.6046 210.342 75.7882C210.038 63.3288 206.236 51.7811 199.392 41.4489C192.091 30.357 182.357 21.8481 170.798 15.4664C156.502 7.56536 141.141 3.61482 124.715 2.8551C107.833 2.09538 91.5589 5.13426 76.0456 12.1237C62.8137 18.2014 51.5589 26.7103 42.7376 38.41C33.9164 50.1097 29.3536 63.4808 29.2015 78.0674C29.0494 109.064 29.3536 140.061 29.3536 171.057C29.3536 171.361 29.3536 171.665 29.3536 172.121C29.6578 171.969 29.8099 171.817 29.962 171.817C45.4753 162.396 60.8365 153.128 76.3498 143.707C76.654 143.555 76.9582 143.099 77.1103 142.644C79.0875 136.87 80.9126 131.096 82.8897 125.322C83.6502 122.891 84.5627 120.612 85.1711 118.181C85.4753 116.965 86.0837 116.357 87.1483 115.901C89.8859 114.686 92.6236 113.47 95.3612 112.255C95.6654 112.103 95.9696 111.647 96.1217 111.191C96.8821 107.241 97.4905 103.29 98.251 99.1876C98.403 98.124 98.8593 97.0604 99.7719 96.3007C100.532 95.6929 101.141 94.9332 101.901 94.3254C104.03 92.1982 106.16 90.2229 108.289 88.0957C109.658 86.8801 110.266 86.7282 111.635 87.4879C119.24 92.0462 126.692 96.6045 134.297 101.163C134.753 101.467 135.361 101.923 135.513 102.378C140.989 111.495 146.312 120.46 151.787 129.576C152.243 130.336 152.243 131.248 152.243 132.008C152.243 132.615 152.091 133.223 152.091 133.831C152.091 134.135 152.243 134.439 152.395 134.591C159.087 140.668 165.779 146.898 172.471 152.976C172.928 153.432 173.536 153.736 173.992 153.887C178.251 154.951 182.51 156.015 186.768 157.23C187.681 157.534 188.593 157.99 189.202 158.446C196.198 164.372 203.042 170.449 209.886 176.527C210.19 177.135 210.342 177.287 210.646 177.591ZM29.3536 246.421C29.3536 246.877 29.3536 247.181 29.3536 247.485C29.3536 255.69 29.5057 263.743 29.5057 271.948C29.5057 279.393 29.5057 286.99 29.6578 294.436C29.6578 295.803 29.962 295.955 31.1787 295.955C39.5437 295.955 47.7567 295.955 56.1217 295.803C73.1559 295.803 90.1901 295.651 107.224 295.651C116.654 295.651 125.932 295.499 135.361 295.499C148.289 295.499 161.369 295.347 174.297 295.347C186.16 295.347 198.023 295.195 209.886 295.195C210.19 295.195 210.494 295.195 210.798 295.195C210.798 268.605 210.798 242.167 210.798 215.729C210.342 215.729 210.038 215.577 209.734 215.577C191.331 212.994 172.928 210.563 154.525 207.98C153.46 207.828 152.7 207.98 151.787 208.435C133.84 218.768 115.741 229.1 97.6426 239.584C96.2738 240.344 94.905 240.951 93.2319 241.103C83.0418 241.863 72.6996 242.775 62.5095 243.534C52.9278 244.294 43.4981 245.054 33.9164 245.814C32.3954 246.117 30.8745 246.269 29.3536 246.421ZM236.654 322.241C236.654 322.09 236.806 322.089 236.806 321.938C236.654 321.786 236.35 321.634 236.198 321.33C231.179 316.468 226.312 311.605 221.293 306.591C218.403 303.704 215.513 300.817 212.471 297.93C212.319 297.778 211.863 297.626 211.559 297.626C210.951 297.626 210.342 297.778 209.734 297.778C165.779 297.93 121.673 298.234 77.7186 298.386C61.597 298.386 45.6274 298.538 29.5057 298.69C29.0494 298.69 28.5932 298.994 28.289 299.298C20.6844 306.895 13.2319 314.34 5.62738 321.938C5.47529 322.089 5.1711 322.393 4.86692 322.697C82.2814 322.545 159.392 322.393 236.654 322.241ZM165.323 206.764C165.171 206.46 165.171 206.308 165.019 206.156C158.631 194.608 152.243 182.909 145.856 171.361C145.399 170.449 145.247 169.538 145.399 168.474C146.768 156.47 148.137 144.467 149.354 132.311C149.354 131.856 149.354 131.4 149.049 131.096C143.878 122.283 138.555 113.47 133.232 104.658C133.08 104.354 132.624 103.898 132.319 103.746C126.236 100.099 120.152 96.3007 114.068 92.654C113.916 92.5021 113.612 92.5021 113.308 92.1982C113.46 92.654 113.612 92.9579 113.764 93.2618C116.35 98.4279 119.087 103.594 121.673 108.76C121.977 109.368 122.129 110.128 121.977 110.583C120.304 116.661 118.479 122.739 116.654 128.817C115.741 131.856 115.133 134.894 113.46 137.781C105.399 151.912 97.6426 166.347 89.5818 180.782C89.4297 181.085 89.2776 181.389 89.1255 181.693C89.4297 181.845 89.7338 181.997 90.038 182.149C98.0989 185.948 106.312 189.594 114.373 193.393C120.456 196.128 126.388 198.863 132.471 201.598C133.232 201.902 133.992 202.358 134.753 202.51C142.205 203.573 149.506 204.637 156.958 205.548C159.696 206.004 162.433 206.308 165.323 206.764ZM29.3536 183.668C29.3536 203.573 29.3536 223.478 29.3536 243.382C29.8099 243.382 30.1141 243.382 30.5703 243.382C39.0875 242.623 47.6046 242.015 56.1217 241.255C68.4411 240.192 80.9126 239.28 93.2319 238.216C93.9924 238.216 94.905 237.913 95.6654 237.457C103.574 233.05 111.483 228.492 119.24 223.934C119.544 223.782 119.696 223.63 120 223.478C119.696 223.326 119.392 223.174 119.087 223.022C96.8821 210.411 74.5247 197.951 52.3194 185.492C51.8631 185.188 51.2548 185.036 50.6464 185.036C46.0837 184.732 41.3688 184.58 36.8061 184.276C34.5247 183.972 31.9392 183.82 29.3536 183.668ZM98.8593 110.735C100.532 109.976 102.053 109.216 103.574 108.608C104.943 108 105.703 108.152 106.16 108.912C106.464 109.824 106.008 110.431 104.791 111.039C99.4677 113.47 93.9924 115.901 88.6692 118.333C88.0608 118.636 87.7567 118.94 87.6046 119.548C85.019 127.601 82.2814 135.654 79.6958 143.859C79.3916 144.923 78.7833 145.531 77.8707 146.138C71.7871 149.785 65.7034 153.432 59.6198 157.078C49.7338 163.004 39.8479 169.082 29.962 175.008C29.3536 175.312 29.2015 175.767 29.2015 176.375C29.2015 177.591 29.2015 178.654 29.2015 179.87C29.2015 181.389 28.8973 181.237 30.5703 181.237C34.6768 181.541 38.7833 181.693 42.8897 181.845C45.4753 181.997 47.9087 182.149 50.4943 182.149C51.711 182.149 52.6236 182.453 53.5361 182.909C55.8175 184.276 58.251 185.492 60.5323 186.859C61.4449 187.467 62.3574 188.075 63.4221 187.315C63.5742 187.163 63.7262 187.163 63.8783 187.163C70.5704 185.492 77.4145 183.972 84.2586 182.301C85.4753 181.997 86.0837 181.541 86.692 180.478C94.905 165.435 103.118 150.545 111.331 135.654C111.635 135.198 111.939 134.591 112.091 133.983C114.373 126.234 116.654 118.484 118.935 110.583C119.087 110.128 118.935 109.52 118.783 109.064C115.741 103.138 112.852 97.3643 109.81 91.4385C109.658 91.1346 109.506 90.9826 109.354 90.6787C109.202 90.6787 109.202 90.6787 109.202 90.8307C107.376 92.5021 105.703 94.4773 103.726 95.9968C101.749 97.9721 100.228 99.9473 100.228 102.834V102.986C99.7719 105.569 99.3156 108 98.8593 110.735ZM210.646 212.994C210.646 212.69 210.646 212.538 210.646 212.386C210.646 202.206 210.646 192.177 210.646 181.997C210.646 181.693 210.342 181.237 210.19 180.933C202.586 174.248 194.981 167.562 187.376 161.029C187.072 160.725 186.616 160.421 186.16 160.421C181.749 159.205 177.338 158.142 172.928 156.926C172.167 156.774 171.407 156.319 170.951 155.863C164.715 150.241 158.631 144.619 152.548 138.997C152.243 138.693 151.939 138.541 151.635 138.237C151.483 139.909 151.331 141.276 151.179 142.796C150.266 151.304 149.202 159.965 148.289 168.474C148.137 169.234 148.289 169.842 148.745 170.601C155.285 182.453 161.825 194.305 168.213 206.156C168.669 207.068 169.278 207.372 170.342 207.524C181.597 209.043 192.852 210.563 203.954 212.082C206.084 212.386 208.365 212.69 210.646 212.994ZM237.262 324.976C158.935 325.128 80.7605 325.432 2.73764 325.584C2.73764 327.256 2.73764 328.927 2.73764 330.598C80.9126 330.446 159.087 330.294 237.262 330.294C237.262 328.471 237.262 326.8 237.262 324.976ZM148.289 207.372V207.22C145.399 206.764 142.51 206.46 139.62 206.004C136.882 205.548 133.992 205.548 131.255 204.181C117.11 197.495 102.966 191.114 88.6692 184.58C88.2129 184.428 87.7567 184.276 87.3004 184.428C80.3042 186.1 73.308 187.771 66.4639 189.442C66.3118 189.442 66.0076 189.594 65.7034 189.746C66.0076 189.898 66.3118 190.05 66.616 190.202C85.1711 200.686 103.726 211.17 122.281 221.503C122.89 221.806 123.194 221.806 123.802 221.503C130.951 217.4 138.251 213.298 145.399 209.043C146.312 208.587 147.376 207.98 148.289 207.372Z" fill="white"/>
</svg>
