<svg viewBox="0 0 125 174" fill="none" xmlns="http://www.w3.org/2000/svg">
<path d="M62.2624 173.611C42.142 173.611 21.9423 173.611 1.82193 173.611C1.58428 173.611 1.26743 173.611 1.02978 173.611C0.396071 173.611 0 173.136 0 172.503C0 171.395 0 170.366 0 169.259C0 168.784 0.237643 168.467 0.554499 168.151C4.91128 163.719 9.34728 159.366 13.7041 154.935C13.9417 154.697 14.1001 154.381 14.1001 154.064C14.0209 116.157 13.8625 78.2504 13.8625 40.3435C13.8625 34.5665 15.3676 29.106 18.1401 24.0412C21.6255 17.6311 26.5368 12.5663 32.6363 8.6094C39.211 4.33598 46.4987 1.72444 54.2617 0.616516C64.1635 -0.807959 73.9069 0.220829 83.2541 3.86115C90.225 6.55183 96.2453 10.5087 101.315 16.1275C105.989 21.2714 109.078 27.2067 110.425 34.0917C110.662 35.3579 110.821 36.6241 110.9 37.8903C111.375 43.1134 111.138 48.4156 111.138 53.6386C111.217 76.3511 111.217 99.0636 111.217 121.776C111.217 132.301 111.217 142.747 111.217 153.273C111.217 153.748 111.375 154.064 111.692 154.302C115.97 158.575 120.326 162.769 124.604 167.043C124.921 167.359 125 167.597 125 167.992C125 169.417 125 170.92 125 172.345C125 173.136 124.921 173.215 124.208 173.215C123.574 173.215 123.02 173.295 122.386 173.295C102.345 173.295 82.3036 173.295 62.2624 173.295C62.2624 173.453 62.2624 173.532 62.2624 173.611ZM109.712 92.4952C109.712 92.1786 109.712 92.0203 109.712 91.8621C109.712 85.2145 109.712 78.6461 109.712 71.9986C109.632 61.1567 109.87 50.3149 109.553 39.473C109.395 32.9838 107.414 26.9693 103.85 21.588C100.048 15.8109 94.9778 11.3792 88.9576 8.05544C81.5114 3.94029 73.5108 1.88272 64.9557 1.48703C56.1629 1.09134 47.687 2.67409 39.6071 6.31442C32.7155 9.47992 26.8536 13.9116 22.2592 20.0052C17.6648 26.0988 15.2883 33.0629 15.2091 40.6601C15.1299 56.8041 15.2883 72.9482 15.2883 89.0922C15.2883 89.2505 15.2883 89.4088 15.2883 89.6462C15.4468 89.5671 15.526 89.4879 15.6052 89.4879C23.685 84.5814 31.6857 79.754 39.7655 74.8475C39.924 74.7684 40.0824 74.531 40.1616 74.2935C41.1914 71.2863 42.142 68.2791 43.1717 65.2719C43.5678 64.0057 44.0431 62.8186 44.36 61.5524C44.5184 60.9193 44.8352 60.6027 45.3897 60.3653C46.8156 59.7322 48.2415 59.0991 49.6673 58.466C49.8257 58.3869 49.9842 58.1495 50.0634 57.9121C50.4594 55.8545 50.7763 53.7969 51.1724 51.6602C51.2516 51.1062 51.4892 50.5523 51.9645 50.1566C52.3606 49.84 52.6774 49.4444 53.0735 49.1278C54.1825 48.0199 55.2915 46.9911 56.4005 45.8832C57.1134 45.2501 57.4303 45.1709 58.1432 45.5666C62.1039 47.9407 65.9854 50.3149 69.9461 52.689C70.1838 52.8473 70.5006 53.0847 70.5799 53.3221C73.4316 58.0703 76.2041 62.7395 79.0558 67.4877C79.2934 67.8834 79.2934 68.3582 79.2934 68.7539C79.2934 69.0705 79.2142 69.387 79.2142 69.7036C79.2142 69.8618 79.2934 70.0201 79.3726 70.0993C82.8581 73.2647 86.3435 76.5094 89.8289 79.6749C90.0666 79.9123 90.3834 80.0706 90.621 80.1497C92.8391 80.7037 95.057 81.2576 97.275 81.8907C97.7503 82.049 98.2256 82.2864 98.5425 82.5238C102.186 85.6102 105.751 88.7757 109.316 91.9412C109.474 92.2578 109.553 92.3369 109.712 92.4952ZM15.2883 128.344C15.2883 128.582 15.2883 128.74 15.2883 128.898C15.2883 133.172 15.3676 137.366 15.3676 141.64C15.3676 145.517 15.3676 149.474 15.4468 153.352C15.4468 154.064 15.6052 154.143 16.2389 154.143C20.5957 154.143 24.8733 154.143 29.23 154.064C38.102 154.064 46.974 153.985 55.846 153.985C60.7573 153.985 65.5894 153.906 70.5006 153.906C77.2338 153.906 84.0463 153.827 90.7795 153.827C96.9582 153.827 103.137 153.748 109.316 153.748C109.474 153.748 109.632 153.748 109.791 153.748C109.791 139.899 109.791 126.129 109.791 112.359C109.553 112.359 109.395 112.28 109.236 112.28C99.6515 110.934 90.0666 109.668 80.4816 108.323C79.9271 108.244 79.5311 108.323 79.0558 108.56C69.7085 113.941 60.282 119.323 50.8555 124.783C50.1426 125.179 49.4297 125.496 48.5583 125.575C43.251 125.97 37.8644 126.445 32.557 126.841C27.5665 127.237 22.6553 127.632 17.6648 128.028C16.8726 128.186 16.0805 128.265 15.2883 128.344ZM123.257 167.834C123.257 167.755 123.337 167.755 123.337 167.676C123.257 167.597 123.099 167.518 123.02 167.359C120.406 164.827 117.871 162.294 115.257 159.683C113.752 158.179 112.247 156.676 110.662 155.172C110.583 155.093 110.345 155.014 110.187 155.014C109.87 155.014 109.553 155.093 109.236 155.093C86.3435 155.172 63.3714 155.33 40.4785 155.409C32.0818 155.409 23.7643 155.489 15.3676 155.568C15.1299 155.568 14.8923 155.726 14.7338 155.884C10.7731 159.841 6.89164 163.719 2.93093 167.676C2.85171 167.755 2.69328 167.913 2.53485 168.071C42.8549 167.992 83.0165 167.913 123.257 167.834ZM86.1058 107.69C86.0266 107.531 86.0266 107.452 85.9474 107.373C82.6204 101.359 79.2934 95.265 75.9664 89.2505C75.7288 88.7757 75.6496 88.3009 75.7288 87.7469C76.4417 81.495 77.1546 75.2432 77.7884 68.9122C77.7884 68.6748 77.7883 68.4374 77.6299 68.2791C74.9366 63.6891 72.1641 59.0991 69.3916 54.5092C69.3124 54.3509 69.0748 54.1135 68.9164 54.0343C65.7478 52.135 62.5792 50.1566 59.4107 48.2573C59.3314 48.1782 59.173 48.1782 59.0146 48.0199C59.0938 48.2573 59.173 48.4156 59.2522 48.5738C60.5989 51.2645 62.0247 53.9552 63.3714 56.6459C63.5298 56.9624 63.609 57.3581 63.5298 57.5955C62.6584 60.761 61.7079 63.9265 60.7573 67.092C60.282 68.6748 59.9651 70.2575 59.0938 71.7611C54.8954 79.1209 50.8555 86.639 46.6572 94.1571C46.578 94.3153 46.4987 94.4736 46.4195 94.6319C46.578 94.711 46.7364 94.7902 46.8948 94.8693C51.0932 96.8477 55.3707 98.747 59.5691 100.725C62.7377 102.15 65.827 103.574 68.9956 104.999C69.3916 105.157 69.7877 105.395 70.1838 105.474C74.0653 106.028 77.8676 106.582 81.7491 107.056C83.1749 107.294 84.6008 107.452 86.1058 107.69ZM15.2883 95.6607C15.2883 106.028 15.2883 116.395 15.2883 126.762C15.526 126.762 15.6844 126.762 15.9221 126.762C20.3581 126.366 24.794 126.049 29.23 125.654C35.6464 125.1 42.142 124.625 48.5583 124.071C48.9544 124.071 49.4297 123.913 49.8257 123.675C53.9449 121.38 58.064 119.006 62.1039 116.632C62.2624 116.553 62.3416 116.474 62.5 116.395C62.3416 116.316 62.1832 116.236 62.0247 116.157C50.4594 109.589 38.815 103.1 27.2497 96.6103C27.012 96.452 26.6952 96.3729 26.3783 96.3729C24.0019 96.2146 21.5463 96.1355 19.1698 95.9772C17.9816 95.8189 16.635 95.7398 15.2883 95.6607ZM51.4892 57.6747C52.3606 57.279 53.1527 56.8833 53.9449 56.5667C54.6578 56.2502 55.0539 56.3293 55.2915 56.725C55.4499 57.1998 55.2123 57.5164 54.5786 57.8329C51.8061 59.0991 48.9544 60.3653 46.1819 61.6315C45.865 61.7898 45.7066 61.9481 45.6274 62.2646C44.2807 66.4589 42.8549 70.6532 41.5082 74.9266C41.3498 75.4806 41.033 75.7971 40.5577 76.1137C37.3891 78.013 34.2205 79.9123 31.052 81.8116C25.903 84.898 20.7541 88.0635 15.6052 91.1498C15.2883 91.3081 15.2091 91.5455 15.2091 91.8621C15.2091 92.4952 15.2091 93.0491 15.2091 93.6822C15.2091 94.4736 15.0507 94.3945 15.9221 94.3945C18.0608 94.5527 20.1996 94.6319 22.3384 94.711C23.685 94.7901 24.9525 94.8693 26.2991 94.8693C26.9328 94.8693 27.4081 95.0276 27.8834 95.265C29.0716 95.9772 30.339 96.6103 31.5273 97.3226C32.0025 97.6391 32.4778 97.9557 33.0323 97.56C33.1115 97.4808 33.1908 97.4808 33.27 97.4808C36.7554 96.6103 40.32 95.8189 43.8847 94.9484C44.5184 94.7902 44.8352 94.5527 45.1521 93.9988C49.4297 86.1642 53.7072 78.4087 57.9848 70.6532C58.1432 70.4158 58.3017 70.0992 58.3809 69.7827C59.5691 65.7467 60.7573 61.7107 61.9455 57.5955C62.0247 57.3581 61.9455 57.0416 61.8663 56.8041C60.282 53.7178 58.7769 50.7106 57.1927 47.6242C57.1134 47.4659 57.0342 47.3868 56.955 47.2285C56.8758 47.2285 56.8758 47.2285 56.8758 47.3076C55.9252 48.1782 55.0539 49.207 54.0241 49.9983C52.9943 51.0271 52.2022 52.0559 52.2022 53.5595V53.6386C51.9645 54.984 51.7269 56.2502 51.4892 57.6747ZM109.712 110.934C109.712 110.776 109.712 110.697 109.712 110.618C109.712 105.315 109.712 100.092 109.712 94.7902C109.712 94.6319 109.553 94.3945 109.474 94.2362C105.513 90.7541 101.553 87.2721 97.5919 83.8692C97.4335 83.7109 97.1958 83.5526 96.9582 83.5526C94.661 82.9195 92.3638 82.3656 90.0666 81.7325C89.6705 81.6533 89.2744 81.4159 89.0368 81.1785C85.789 78.2504 82.6204 75.3223 79.4519 72.3942C79.2934 72.236 79.135 72.1568 78.9766 71.9986C78.8973 72.8691 78.8181 73.5813 78.7389 74.3727C78.2636 78.8044 77.7091 83.3152 77.2338 87.7469C77.1546 88.1426 77.2338 88.4592 77.4715 88.8548C80.8777 95.0276 84.2839 101.2 87.6109 107.373C87.8485 107.848 88.1654 108.006 88.7199 108.085C94.5818 108.877 100.444 109.668 106.226 110.459C107.335 110.618 108.523 110.776 109.712 110.934ZM123.574 169.259C82.7788 169.338 42.0627 169.496 1.42586 169.575C1.42586 170.446 1.42586 171.316 1.42586 172.187C42.142 172.108 82.8581 172.028 123.574 172.028C123.574 171.079 123.574 170.208 123.574 169.259ZM77.2338 108.006V107.927C75.7288 107.69 74.2237 107.531 72.7186 107.294C71.2928 107.056 69.7877 107.056 68.3619 106.344C60.9949 102.862 53.628 99.5384 46.1819 96.1355C45.9442 96.0564 45.7066 95.9772 45.469 96.0564C41.8251 96.9269 38.1812 97.7974 34.6166 98.6679C34.5374 98.6679 34.379 98.747 34.2205 98.8262C34.379 98.9053 34.5374 98.9844 34.6958 99.0636C44.36 104.524 54.0241 109.985 63.6882 115.366C64.0051 115.524 64.1635 115.524 64.4804 115.366C68.2034 113.229 72.0057 111.092 75.7288 108.877C76.2041 108.639 76.7586 108.323 77.2338 108.006Z" fill="white"/>
<path d="M61.8665 15.6526C62.3418 15.257 62.7378 14.8613 63.1339 14.6239C65.8272 12.962 69.075 14.7821 69.1542 18.0268C69.2334 19.4512 68.8373 20.7966 67.966 21.9836C67.0154 23.2498 65.9856 24.516 64.9558 25.7031C64.1637 26.6528 63.2923 27.5233 62.5002 28.3938C62.1041 28.8686 61.708 28.8686 61.2328 28.4729C60.9159 28.2355 60.599 27.919 60.3614 27.6024C58.7771 25.5448 57.1928 23.4873 55.6085 21.4297C54.2619 19.6887 54.1035 18.185 55.5293 16.0483C56.876 14.0699 59.094 13.6742 61.1535 15.0987C61.4704 15.3361 61.708 15.4944 61.8665 15.6526ZM61.9457 27.1276C62.6586 26.3362 63.2923 25.624 63.926 24.9117C64.9558 23.7247 65.9064 22.5376 66.857 21.3505C67.7283 20.1635 68.0452 18.8181 67.7283 17.3937C67.5699 16.5232 67.0154 15.8109 66.144 15.5735C64.9558 15.257 64.0053 15.5735 63.2131 16.5232C62.1833 17.7894 61.9457 17.7894 60.8367 16.6023C60.1238 15.8901 59.3316 15.5735 58.381 15.8109C56.4799 16.2857 55.6085 18.9764 56.7175 20.3218C58.4603 22.4585 60.0445 24.6743 61.7873 26.8902C61.708 26.8902 61.7873 26.9693 61.9457 27.1276Z" fill="white"/>
<path d="M93.1426 16.3588C93.6214 16.1403 94.0348 15.9042 94.4136 15.7976C96.9995 15.0337 99.2798 17.2402 98.6341 19.9114C98.3873 21.0939 97.7657 22.1067 96.7868 22.8849C95.7252 23.7104 94.5982 24.5184 93.4886 25.2616C92.627 25.8632 91.7174 26.3826 90.8732 26.9194C90.4424 27.2202 90.1157 27.1327 89.8103 26.704C89.601 26.4398 89.409 26.1109 89.2823 25.7994C88.4263 23.7664 87.5703 21.7334 86.7143 19.7004C85.985 17.9789 86.1838 16.7141 87.8283 15.2817C89.3727 13.9613 91.2891 14.1279 92.6759 15.7482C92.8853 16.0124 93.0466 16.1944 93.1426 16.3588Z" fill="white"/>
<path d="M83.3487 48.4679C83.7095 48.1701 84.0101 47.8723 84.3108 47.6936C86.3553 46.4428 88.8208 47.8127 88.8809 50.2548C88.9411 51.3269 88.6404 52.3394 87.9789 53.2329C87.2573 54.1858 86.4756 55.1388 85.6939 56.0323C85.0925 56.747 84.4311 57.4022 83.8297 58.0574C83.5291 58.4147 83.2284 58.4147 82.8676 58.1169C82.6271 57.9382 82.3865 57.7 82.2061 57.4617C81.0034 55.9131 79.8008 54.3645 78.5981 52.8159C77.5758 51.5056 77.4556 50.3739 78.538 48.7657C79.5602 47.2767 81.244 46.9789 82.8075 48.051C83.048 48.2297 83.2284 48.3488 83.3487 48.4679Z" fill="white"/>
<path d="M78.5146 29.3026C78.8802 28.7894 79.1675 28.2972 79.4963 27.96C81.72 25.6202 85.4047 26.5429 86.3341 29.6987C86.7861 31.0724 86.7479 32.4943 86.1988 33.8871C85.5923 35.3783 84.9076 36.8905 84.202 38.3252C83.6689 39.4646 83.0368 40.5474 82.483 41.6093C82.2164 42.179 81.8253 42.2838 81.2521 42.0222C80.8769 41.8736 80.481 41.6475 80.1633 41.4004C78.059 39.8051 75.9547 38.2098 73.8504 36.6145C72.0639 35.2663 71.513 33.8361 72.3605 31.3668C73.1713 29.0735 75.2578 28.0992 77.6653 28.9489C78.0405 29.0975 78.3167 29.1895 78.5146 29.3026Z" fill="white"/>
<path d="M39.8523 38.2846C40.4255 38.023 40.9204 37.7404 41.3738 37.6127C44.4694 36.6983 47.1991 39.3397 46.4261 42.5374C46.1307 43.953 45.3866 45.1654 44.2147 46.097C42.9439 47.0852 41.5948 48.0524 40.2664 48.9421C39.235 49.6623 38.1462 50.284 37.1356 50.9267C36.6199 51.2868 36.2288 51.182 35.8632 50.6688C35.6126 50.3526 35.3828 49.9588 35.2311 49.586C34.2064 47.1523 33.1817 44.7186 32.157 42.2849C31.2839 40.224 31.5219 38.7099 33.4905 36.9952C35.3394 35.4145 37.6335 35.614 39.2936 37.5536C39.5442 37.8699 39.7374 38.0877 39.8523 38.2846Z" fill="white"/>
<path d="M61.838 16.1892C62.2439 15.8542 62.5822 15.5191 62.9204 15.3181C65.2205 13.9109 67.9942 15.4521 68.0619 18.1994C68.1295 19.4055 67.7913 20.5446 67.0471 21.5497C66.2353 22.6219 65.3558 23.694 64.4764 24.6991C63.7999 25.5032 63.0557 26.2402 62.3792 26.9773C62.041 27.3794 61.7027 27.3794 61.2968 27.0443C61.0262 26.8433 60.7556 26.5753 60.5527 26.3072C59.1997 24.5651 57.8467 22.8229 56.4937 21.0807C55.3436 19.6065 55.2083 18.3334 56.426 16.5242C57.5761 14.849 59.4703 14.514 61.2292 15.7201C61.4998 15.9212 61.7027 16.0552 61.838 16.1892Z" fill="white"/>
<path d="M21.4258 55.7536C21.9046 55.5351 22.3181 55.299 22.6968 55.1924C25.2827 54.4285 27.563 56.635 26.9173 59.3062C26.6705 60.4887 26.0489 61.5015 25.07 62.2797C24.0084 63.1052 22.8814 63.9132 21.7718 64.6564C20.9102 65.258 20.0006 65.7774 19.1564 66.3142C18.7256 66.615 18.3989 66.5275 18.0936 66.0988C17.8842 65.8346 17.6922 65.5057 17.5655 65.1942C16.7095 63.1612 15.8535 61.1282 14.9976 59.0952C14.2682 57.3737 14.467 56.1089 16.1115 54.6765C17.6559 53.3561 19.5723 53.5227 20.9591 55.143C21.1685 55.4072 21.3298 55.5892 21.4258 55.7536Z" fill="white"/>
<path d="M57.6522 33.0344C57.9679 32.7738 58.231 32.5132 58.4941 32.3569C60.2831 31.2624 62.4404 32.4611 62.493 34.5979C62.5456 35.536 62.2825 36.422 61.7037 37.2037C61.0723 38.0376 60.3883 38.8715 59.7043 39.6532C59.1781 40.2786 58.5993 40.8519 58.0732 41.4252C57.8101 41.7379 57.547 41.7379 57.2313 41.4773C57.0208 41.3209 56.8104 41.1125 56.6525 40.904C55.6002 39.549 54.5479 38.194 53.4955 36.8389C52.601 35.6924 52.4958 34.7021 53.4429 33.295C54.3374 31.9921 55.8107 31.7315 57.1787 32.6696C57.3892 32.8259 57.547 32.9302 57.6522 33.0344Z" fill="white"/>
<path d="M36.1228 62.0454C36.3934 61.822 36.6189 61.5987 36.8444 61.4646C38.3778 60.5265 40.2269 61.554 40.272 63.3855C40.3171 64.1896 40.0916 64.949 39.5955 65.6191C39.0543 66.3338 38.468 67.0486 37.8817 67.7186C37.4307 68.2547 36.9346 68.7461 36.4836 69.2375C36.2581 69.5055 36.0326 69.5055 35.762 69.2821C35.5816 69.1481 35.4012 68.9694 35.2659 68.7907C34.3639 67.6293 33.4619 66.4678 32.5599 65.3064C31.7932 64.3236 31.703 63.4749 32.5148 62.2687C33.2815 61.1519 34.5443 60.9286 35.7169 61.7327C35.8973 61.8667 36.0326 61.956 36.1228 62.0454Z" fill="white"/>
<path d="M78.0732 3.99979C78.4456 3.82979 78.7671 3.64618 79.0617 3.56325C81.073 2.96911 82.8465 4.6853 82.3443 6.76289C82.1523 7.68264 81.6689 8.47034 80.9075 9.07565C80.0818 9.71769 79.2053 10.3461 78.3422 10.9242C77.6721 11.3921 76.9647 11.796 76.3081 12.2136C75.973 12.4475 75.7189 12.3795 75.4814 12.046C75.3186 11.8405 75.1692 11.5847 75.0707 11.3425C74.4049 9.76127 73.7392 8.18005 73.0734 6.59882C72.5061 5.25982 72.6608 4.27611 73.9398 3.16203C75.141 2.13502 76.6316 2.26463 77.7102 3.52484C77.873 3.73033 77.9985 3.87187 78.0732 3.99979Z" fill="white"/>
<path d="M30.5536 17.5923C30.926 17.4223 31.2476 17.2387 31.5422 17.1558C33.5535 16.5616 35.327 18.2778 34.8248 20.3554C34.6328 21.2752 34.1494 22.0629 33.388 22.6682C32.5623 23.3102 31.6857 23.9386 30.8227 24.5167C30.1526 24.9846 29.4452 25.3886 28.7885 25.8061C28.4535 26.0401 28.1994 25.972 27.9619 25.6386C27.799 25.4331 27.6497 25.1772 27.5512 24.935C26.8854 23.3538 26.2196 21.7726 25.5539 20.1914C24.9866 18.8523 25.1413 17.8686 26.4203 16.7546C27.6215 15.7276 29.112 15.8572 30.1906 17.1174C30.3535 17.3229 30.479 17.4644 30.5536 17.5923Z" fill="white"/>
<path d="M44.4713 23.3819C44.6271 23.0676 44.7417 22.7718 44.8927 22.5574C45.9089 21.0756 48.0155 21.2583 48.8043 22.911C49.1737 23.6263 49.2779 24.4113 49.0987 25.2252C48.8967 26.0982 48.6535 26.9897 48.392 27.8405C48.1993 28.5137 47.9472 29.1645 47.7363 29.797C47.6399 30.1336 47.4342 30.2256 47.0961 30.1323C46.8768 30.0837 46.6392 29.9943 46.4429 29.8864C45.1457 29.1949 43.8486 28.5033 42.5515 27.8117C41.4508 27.228 41.022 26.4903 41.2704 25.0584C41.5141 23.7265 42.5752 23.0072 43.9733 23.2622C44.1926 23.3109 44.3526 23.3372 44.4713 23.3819Z" fill="white"/>
<path d="M23.8155 35.3258C24.2192 35.258 24.5773 35.1639 24.8833 35.16C26.9798 35.1067 28.2488 37.2234 27.2259 39.1002C26.8025 39.939 26.1316 40.5747 25.2395 40.9623C24.2758 41.3688 23.2665 41.7489 22.2832 42.0839C21.5148 42.3624 20.7269 42.5695 19.9846 42.8029C19.6004 42.9422 19.3726 42.8106 19.2295 42.4271C19.1254 42.1865 19.0474 41.9007 19.0149 41.6412C18.7811 39.9416 18.5472 38.2419 18.3134 36.5423C18.112 35.1021 18.516 34.1919 20.0398 33.4468C21.4659 32.7657 22.8721 33.2767 23.5878 34.7731C23.6919 35.0138 23.7765 35.1829 23.8155 35.3258Z" fill="white"/>
<path d="M50.2041 4.77028C50.6078 4.70246 50.966 4.60833 51.272 4.60447C53.3685 4.55113 54.6374 6.66786 53.6146 8.54468C53.1911 9.3834 52.5203 10.0191 51.6282 10.4068C50.6644 10.8132 49.6551 11.1934 48.6719 11.5284C47.9035 11.8069 47.1156 12.014 46.3733 12.2474C45.9891 12.3866 45.7613 12.2551 45.6182 11.8716C45.5141 11.6309 45.436 11.3452 45.4036 11.0857C45.1697 9.38603 44.9359 7.68637 44.7021 5.98671C44.5007 4.54652 44.9047 3.63635 46.4285 2.89128C47.8546 2.21016 49.2607 2.72113 49.9764 4.21756C50.0805 4.4582 50.1651 4.62739 50.2041 4.77028Z" fill="white"/>
<path d="M101.207 37.4007C101.527 37.347 101.811 37.2724 102.053 37.2693C103.714 37.2271 104.719 38.9038 103.909 40.3905C103.573 41.0548 103.042 41.5584 102.335 41.8654C101.572 42.1874 100.772 42.4885 99.9936 42.7539C99.385 42.9745 98.7609 43.1385 98.1729 43.3234C97.8686 43.4337 97.6881 43.3295 97.5747 43.0257C97.4923 42.8351 97.4305 42.6088 97.4048 42.4032C97.2195 41.0569 97.0343 39.7106 96.8491 38.3642C96.6896 37.2234 97.0096 36.5025 98.2166 35.9123C99.3462 35.3728 100.46 35.7775 101.027 36.9629C101.109 37.1535 101.176 37.2875 101.207 37.4007Z" fill="white"/>
<path d="M103.482 74.3897C103.708 74.2035 103.895 74.0174 104.083 73.9057C105.361 73.124 106.902 73.9802 106.94 75.5064C106.977 76.1765 106.789 76.8094 106.376 77.3678C105.925 77.9634 105.436 78.559 104.948 79.1174C104.572 79.5641 104.159 79.9736 103.783 80.3831C103.595 80.6064 103.407 80.6064 103.181 80.4203C103.031 80.3086 102.881 80.1597 102.768 80.0108C102.016 79.0429 101.265 78.0751 100.513 77.1072C99.8741 76.2882 99.7989 75.5809 100.475 74.5758C101.114 73.6451 102.167 73.459 103.144 74.1291C103.294 74.2408 103.407 74.3152 103.482 74.3897Z" fill="white"/>
<path d="M25.7047 71.6119C25.9302 71.4258 26.1181 71.2396 26.3061 71.128C27.5839 70.3462 29.1248 71.2024 29.1624 72.7287C29.2 73.3987 29.0121 74.0316 28.5987 74.59C28.1476 75.1856 27.6591 75.7812 27.1705 76.3396C26.7946 76.7863 26.3812 77.1958 26.0054 77.6053C25.8175 77.8287 25.6296 77.8287 25.4041 77.6425C25.2537 77.5308 25.1034 77.3819 24.9906 77.233C24.239 76.2652 23.4873 75.2973 22.7356 74.3294C22.0967 73.5104 22.0215 72.8031 22.6981 71.798C23.337 70.8674 24.3893 70.6812 25.3665 71.3513C25.5168 71.463 25.6296 71.5374 25.7047 71.6119Z" fill="white"/>
<path d="M88.4985 65.1676C88.6119 64.8638 88.6891 64.5809 88.8077 64.3694C89.6014 62.9101 91.5561 62.878 92.4385 64.3229C92.8461 64.9456 93.0165 65.6576 92.9291 66.4231C92.8262 67.2452 92.6872 68.0882 92.5276 68.8953C92.4144 69.5327 92.2444 70.1553 92.1105 70.7569C92.0539 71.0756 91.8734 71.1798 91.5536 71.1261C91.3473 71.1022 91.1204 71.0425 90.9295 70.9621C89.671 70.4493 88.4124 69.9365 87.1538 69.4238C86.0861 68.9915 85.6217 68.3539 85.7141 67.0135C85.8117 65.7655 86.7191 65.0032 88.0292 65.1049C88.2355 65.1288 88.385 65.1378 88.4985 65.1676Z" fill="white"/>
<path d="M101.878 55.1551C102.173 55.0204 102.427 54.875 102.661 54.8093C104.254 54.3386 105.659 55.6981 105.261 57.3438C105.109 58.0723 104.726 58.6963 104.123 59.1757C103.469 59.6843 102.774 60.1821 102.091 60.64C101.56 61.0106 100.999 61.3306 100.479 61.6614C100.214 61.8467 100.013 61.7927 99.8246 61.5286C99.6956 61.3659 99.5773 61.1632 99.4992 60.9713C98.9719 59.7188 98.4445 58.4663 97.9171 57.2138C97.4678 56.1532 97.5903 55.3739 98.6034 54.4915C99.555 53.678 100.736 53.7806 101.59 54.7788C101.719 54.9416 101.818 55.0537 101.878 55.1551Z" fill="white"/>
</svg>
