<svg viewBox="0 0 125 174" fill="none" xmlns="http://www.w3.org/2000/svg">
<path d="M62.2624 173.611C42.142 173.611 21.9423 173.611 1.82193 173.611C1.58428 173.611 1.26743 173.611 1.02978 173.611C0.396071 173.611 0 173.136 0 172.503C0 171.395 0 170.366 0 169.259C0 168.784 0.237643 168.467 0.554499 168.151C4.91128 163.719 9.34728 159.366 13.7041 154.935C13.9417 154.697 14.1001 154.381 14.1001 154.064C14.0209 116.157 13.8625 78.2504 13.8625 40.3435C13.8625 34.5665 15.3676 29.106 18.1401 24.0412C21.6255 17.6311 26.5368 12.5663 32.6363 8.6094C39.211 4.33598 46.4987 1.72444 54.2617 0.616516C64.1635 -0.807959 73.9069 0.220829 83.2541 3.86115C90.225 6.55183 96.2453 10.5087 101.315 16.1275C105.989 21.2714 109.078 27.2067 110.425 34.0917C110.662 35.3579 110.821 36.6241 110.9 37.8903C111.375 43.1134 111.138 48.4156 111.138 53.6386C111.217 76.3511 111.217 99.0636 111.217 121.776C111.217 132.301 111.217 142.747 111.217 153.273C111.217 153.748 111.375 154.064 111.692 154.302C115.97 158.575 120.326 162.769 124.604 167.043C124.921 167.359 125 167.597 125 167.992C125 169.417 125 170.92 125 172.345C125 173.136 124.921 173.215 124.208 173.215C123.574 173.215 123.02 173.295 122.386 173.295C102.345 173.295 82.3036 173.295 62.2624 173.295C62.2624 173.453 62.2624 173.532 62.2624 173.611ZM109.712 153.589C109.712 153.273 109.712 92.0995 109.712 91.9412C109.712 85.2936 109.712 78.7252 109.712 72.0777C109.632 61.2358 109.87 50.394 109.553 39.5522C109.395 33.0629 107.414 27.0484 103.85 21.6671C100.048 15.8901 94.9778 11.4584 88.9576 8.13458C81.5114 3.94029 73.5108 1.88272 64.9557 1.48703C56.1629 1.09134 47.687 2.67409 39.6071 6.31442C32.7155 9.47992 26.8536 13.9116 22.2592 20.0052C17.6648 26.0988 15.2883 33.0629 15.2091 40.6601C15.1299 56.8041 15.2883 72.9482 15.2883 89.0922C15.2883 89.2505 15.2883 153.827 15.2883 153.985C15.4468 153.906 109.553 153.431 109.712 153.589ZM123.257 167.834C123.257 167.755 123.337 167.755 123.337 167.676C123.257 167.597 123.099 167.518 123.02 167.359C120.406 164.827 117.871 162.294 115.257 159.683C113.752 158.179 112.247 156.676 110.662 155.172C110.583 155.093 110.345 155.014 110.187 155.014C109.87 155.014 109.553 155.093 109.236 155.093C86.3435 155.172 63.3714 155.33 40.4785 155.409C32.0818 155.409 23.7643 155.489 15.3676 155.568C15.1299 155.568 14.8923 155.726 14.7338 155.884C10.7731 159.841 6.89164 163.719 2.93093 167.676C2.85171 167.755 2.69328 167.913 2.53485 168.071C42.8549 167.992 83.0165 167.913 123.257 167.834ZM123.574 169.259C82.7788 169.338 42.0627 169.496 1.42586 169.575C1.42586 170.446 1.42586 171.316 1.42586 172.187C42.142 172.108 82.8581 172.028 123.574 172.028C123.574 171.079 123.574 170.208 123.574 169.259Z" fill="white"/>
<line x1="62.2871" y1="1.39032" x2="62.2871" y2="154.126" stroke="white"/>
<rect x="17.4268" y="40.1677" width="41.1914" height="7.91375" stroke="white"/>
<rect x="17.4268" y="127.219" width="41.1914" height="7.91376" stroke="white"/>
<rect x="66.54" y="40.1677" width="41.1914" height="7.91375" stroke="white"/>
<rect x="66.54" y="127.219" width="41.1914" height="7.91376" stroke="white"/>
</svg>
