<svg xmlns="http://www.w3.org/2000/svg" viewBox="0 0 62 62"><path d="M48.1 48h-34c-.6 0-1-.4-1-1s.4-1 1-1h34c.6 0 1 .4 1 1s-.5 1-1 1zm0-38h-34c-.6 0-1-.4-1-1s.4-1 1-1h34c.6 0 1 .4 1 1s-.5 1-1 1z"/><path d="M44.1 62h-26c-2.8 0-5-2.2-5-5V5c0-2.8 2.2-5 5-5h26c2.8 0 5 2.2 5 5v52c0 2.8-2.3 5-5 5zm-26-60c-1.7 0-3 1.3-3 3v52c0 1.7 1.3 3 3 3h26c1.7 0 3-1.3 3-3V5c0-1.7-1.3-3-3-3h-26z"/><path d="M31.1 57c-1.7 0-3-1.3-3-3s1.3-3 3-3 3 1.3 3 3-1.4 3-3 3zm0-4c-.6 0-1 .4-1 1s.4 1 1 1 1-.4 1-1-.5-1-1-1z"/></svg>