<svg version="1.1" xmlns="http://www.w3.org/2000/svg" x="0" y="0" xml:space="preserve" viewBox="0 0 20 21"><style>.st0{fill:#5d7ea0}</style><path class="st0" d="M15.3 16.2H4.7c-.4 0-.8-.3-.8-.8s.3-.8.8-.8h10.6c.4 0 .8.3.8.8s-.4.8-.8.8zm0-11.8H4.7c-.4 0-.8-.4-.8-.8s.3-.8.8-.8h10.6c.4 0 .8.3.8.8s-.4.8-.8.8z"/><path class="st0" d="M14.1 20.6H5.9c-1.1 0-2-.9-2-2V2.4c0-1.1.9-2 2-2H14c1.1 0 2 .9 2 2v16.2c.1 1.1-.8 2-1.9 2zM5.9 1.9c-.3 0-.5.2-.5.5v16.2c0 .3.2.5.5.5H14c.3 0 .5-.2.5-.5V2.4c0-.3-.2-.5-.5-.5H5.9z"/><path class="st0" d="M10 19.1c-.8 0-1.4-.6-1.4-1.4s.6-1.4 1.4-1.4 1.4.6 1.4 1.4-.6 1.4-1.4 1.4zm0-1.5c-.1 0-.1.1-.1.1 0 .1.2.1.2 0s0-.1-.1-.1z"/></svg>
