<svg width="20" height="21" viewBox="0 0 20 21" fill="none" xmlns="http://www.w3.org/2000/svg">
    <g clip-path="url(#clip0)">
        <path d="M4.6875 15.5H15.3125M4.6875 3.625H15.3125H4.6875Z" stroke="#5D7EA0" stroke-width="1.5" stroke-linecap="round" stroke-linejoin="round"/>
        <path d="M14.0625 1.125H5.9375C5.24714 1.125 4.6875 1.68464 4.6875 2.375V18.625C4.6875 19.3154 5.24714 19.875 5.9375 19.875H14.0625C14.7529 19.875 15.3125 19.3154 15.3125 18.625V2.375C15.3125 1.68464 14.7529 1.125 14.0625 1.125Z" stroke="#5D7EA0" stroke-width="1.5" stroke-linecap="round" stroke-linejoin="round"/>
        <path d="M10 18.3125C10.3452 18.3125 10.625 18.0327 10.625 17.6875C10.625 17.3423 10.3452 17.0625 10 17.0625C9.65482 17.0625 9.375 17.3423 9.375 17.6875C9.375 18.0327 9.65482 18.3125 10 18.3125Z" stroke="#5D7EA0" stroke-width="1.5" stroke-linecap="round" stroke-linejoin="round"/>
    </g>
    <defs>
        <clipPath id="clip0">
            <rect width="20" height="20" fill="white" transform="translate(0 0.5)"/>
        </clipPath>
    </defs>
</svg>
