<svg xmlns="http://www.w3.org/2000/svg" viewBox="0 0 62 62"><path d="M62 31C62 13.9 48.1 0 31 0S0 13.9 0 31c0 9.6 4.4 18.3 11.4 24 .1.1.2.2.3.2 5.3 4.3 12 6.8 19.4 6.8 7.3 0 14.1-2.6 19.4-6.8.1 0 .1-.1.2-.1C57.5 49.3 62 40.7 62 31zM14 54.5c.8-.4 1.7-.6 2.6-.8 8.2-1.5 8.9-4.2 8.9-6.7v-1c0-.3-.1-.5-.3-.7-2-1.8-3.3-4.1-4-6.7-.1-.4-.5-.8-1-.8-1.2 0-2-3.7-2-5 0-1.2.2-2 .6-2.4.1-.1.3-.3.8-.3.3 0 .6-.1.8-.4.2-.2.3-.6.2-.9-1.3-4.8-1.2-9.1.2-10.8.5-.6 1.1-.9 2-.9.2 0 .4-.1.6-.2 5.3-3.7 11.8-4.1 15.9-1 3.4 2.6 4.2 7.3 2.2 12.8-.1.3-.1.6.1.9s.5.4.8.4c.5 0 .7.2.8.3.6.6.6 1.9.6 2.5 0 1.3-.7 4.9-2 4.9-.5 0-.9.3-1 .8-.7 2.5-2 4.8-3.9 6.6-.2.2-.3.5-.3.7v1c0 2.4.7 5.2 8.9 6.7.9.2 1.8.5 2.6.9C43.3 57.9 37.4 60 31 60c-6.4 0-12.2-2.1-17-5.5zm35.8-1.4c-1.2-.7-2.6-1.2-4-1.5-7.3-1.3-7.3-3.4-7.3-4.7v-.6c1.9-1.8 3.2-4.1 4-6.6 3-.9 3.2-6.7 3.2-6.9 0-.7 0-2.7-1.2-3.8-.3-.3-.6-.5-.9-.6 1.9-5.9.7-11-3.2-14-4.7-3.6-12-3.3-18 .8-1.3.1-2.4.7-3.2 1.7-1.7 2.2-2 6.4-.8 11.5-.4.1-.7.4-1 .7-1.2 1.2-1.2 3.1-1.2 3.9 0 .1.3 5.9 3.2 6.8.8 2.6 2.2 4.9 4.1 6.7v.5c0 1.3 0 3.4-7.3 4.7-1.4.2-2.8.7-4 1.4C6 47.8 2 39.8 2 31 2 15 15 2 31 2s29 13 29 29c0 8.8-4 16.8-10.2 22.1z" fill="#1e436a"/></svg>