<svg xmlns="http://www.w3.org/2000/svg" viewBox="0 0 62 62"><path d="M61 62H1c-.3 0-.6-.1-.8-.4-.2-.2-.2-.5-.2-.8.5-3 1.9-5.7 4-7.8s4.8-3.5 7.8-4C22.2 47.1 23 43.9 23 43v-2.8c-2.3-2.2-7-7.6-7-15.2v-9.6C16 4.8 23.5 0 31 0s15 4.8 15 15.4V25c0 5.4-2.6 11.1-7 15.2V43c0 1 0 4.1 10.2 6 3 .6 5.8 2 8 4 2.3 2.1 3.9 4.7 4.7 7.7.1.3 0 .6-.2.9s-.4.4-.7.4zM2.2 60h57.4c-.8-2.1-2.1-3.9-3.7-5.5-2-1.8-4.4-3.1-7.1-3.6-8-1.4-11.8-4-11.8-7.9v-3.2c0-.3.1-.5.3-.7C41.5 35.2 44 30 44 25v-9.6C44 5.5 37 2 31 2S18 5.5 18 15.4V25c0 7.2 4.7 12.2 6.7 14.1.2.2.3.5.3.7V43c0 2.1-1.7 6-12.8 8-2.6.4-4.9 1.6-6.7 3.5C3.9 56 2.8 57.9 2.2 60z" /></svg>