<svg version="1.1" xmlns="http://www.w3.org/2000/svg" x="0" y="0" xml:space="preserve" viewBox="0 0 24 24"><style>.st0{fill:#5d7ea0}</style><path class="st0" d="M4.9 21.5c-.3 0-.5-.1-.6-.4-.2-.4-.1-.8.2-1 .6-.4 1.2-.6 1.9-.7 2.4-.4 2.4-1 2.4-1.4v-.1c-.7-.7-1.2-1.5-1.5-2.4-1-.5-1.3-2.3-1.3-2.8 0-.3 0-1.2.5-1.7l.2-.2c-.1-1.2-.3-3.2.6-4.4.3-.4.8-.7 1.3-.7 2.4-1.6 5.3-1.7 7.2-.2 1.5 1.2 2 3.1 1.4 5.4.1 0 .1.1.2.1.5.5.5 1.4.5 1.7 0 .7-.3 2.4-1.3 2.9-.3.9-.8 1.7-1.4 2.4 0 .4 0 1 2.4 1.4.7.1 1.3.4 1.9.7.3.2.5.7.2 1-.2.3-.7.5-1 .2-.4-.3-.9-.4-1.3-.5-3.2-.6-3.6-1.7-3.6-2.9v-.4c0-.2.1-.4.2-.5.7-.6 1.1-1.4 1.4-2.3.1-.3.4-.6.7-.6.2-.1.4-1 .4-1.5s-.1-.7-.1-.7c-.2 0-.5-.1-.6-.3-.1-.2-.2-.5-.1-.7.7-1.9.5-3.5-.7-4.4-1.6-.9-3.8-.8-5.7.5-.1.1-.3.2-.4.2-.2 0-.3.1-.4.2-.4.5-.5 1.8 0 3.7.1.2 0 .5-.1.6-.2.2-.4.3-.7.3-.1 0-.2.1-.1.6 0 .5.2 1.4.4 1.5.3 0 .6.2.7.5.2.9.7 1.7 1.4 2.3.2.1.2.3.2.6v.5c0 1.1-.4 2.3-3.7 2.9-.5.1-.9.2-1.4.5 0 .1-.2.1-.3.1z"/><path class="st0" d="M12 24C5.4 24 0 18.6 0 12S5.4 0 12 0s12 5.4 12 12-5.4 12-12 12zm0-22.5C6.2 1.5 1.5 6.2 1.5 12S6.2 22.5 12 22.5 22.5 17.8 22.5 12 17.8 1.5 12 1.5z"/></svg>
