<svg viewBox="0 0 62 62" xmlns="http://www.w3.org/2000/svg"><path d="m51 42.1h-16c-2.9 0-5.7-1.1-7.8-3.2s-3.2-4.9-3.2-7.8c0-.7.1-1.5.2-2.2.1-.5.6-.9 1.2-.8.5.1.9.6.8 1.2-.1.5-.2 1.1-.2 1.7 0 2.4.9 4.7 2.6 6.4s4 2.6 6.4 2.6h16c2.4 0 4.7-1 6.4-2.6 1.7-1.7 2.6-4 2.6-6.4s-.9-4.7-2.6-6.4-4-2.6-6.4-2.6h-10c-.6 0-1-.4-1-1s.4-1 1-1h10c2.9 0 5.7 1.1 7.8 3.2s3.2 4.8 3.2 7.8c0 2.9-1.1 5.7-3.2 7.8s-4.9 3.3-7.8 3.3z"/><path d="m21 42.1h-10c-1.4 0-2.9-.3-4.2-.8-1.3-.6-2.5-1.4-3.6-2.4-2.1-2.1-3.2-4.9-3.2-7.8s1.1-5.7 3.2-7.8 4.8-3.2 7.8-3.2h16c2.9 0 5.7 1.1 7.8 3.2s3.2 4.8 3.2 7.8c0 .7-.1 1.5-.2 2.2-.1.5-.6.9-1.2.8-.5-.1-.9-.6-.8-1.2s.2-1.2.2-1.8c0-2.4-.9-4.7-2.6-6.4s-4-2.6-6.4-2.6h-16c-2.4 0-4.7.9-6.4 2.6s-2.6 4-2.6 6.4.9 4.7 2.6 6.4c.8.8 1.8 1.5 2.9 2s2.3.7 3.4.7h10c.6 0 1 .4 1 1s-.3.9-.9.9z"/></svg>