<svg xmlns="http://www.w3.org/2000/svg" width="512" height="496" viewBox="0 0 512 496" version="1.1">
	<path d="M 356.346 1.064 C 338.625 3.807, 319.481 10.611, 304.405 19.525 C 295.177 24.980, 292.482 27.024, 275.498 41.454 C 268.346 47.529, 261.727 53.102, 260.788 53.839 C 259.287 55.016, 257.705 54.143, 247.636 46.581 C 212.243 19.997, 183.783 8.841, 151 8.700 C 120.050 8.566, 94.110 18.458, 69.729 39.689 C 49.008 57.733, 26.204 93.050, 16.581 122 C 3.650 160.905, 9.483 195.910, 35.283 234.216 C 47.010 251.629, 210.531 461.607, 219.947 471.345 C 229.201 480.915, 242.104 491.212, 248.500 494.131 C 254.070 496.673, 263.173 496.579, 268.660 493.922 C 271.753 492.425, 281.435 482.857, 303.321 459.672 C 339.478 421.367, 348.470 411.442, 375.291 380.231 C 415.120 333.885, 460.382 277.169, 473.413 257.281 C 485.264 239.194, 495.235 216.279, 500.466 195.108 C 504.987 176.813, 505.502 171.642, 505.455 145 C 505.415 122.621, 505.142 118.268, 503.224 109.435 C 496.726 79.521, 485.155 57.801, 465.139 37.947 C 446.418 19.378, 425.805 8.203, 399.748 2.494 C 391.036 0.586, 364.981 -0.273, 356.346 1.064 M 358.831 50.023 C 346.500 52.104, 333.578 57.613, 322.500 65.512 C 316.010 70.139, 305.066 81.181, 292.699 95.580 C 274.772 116.453, 264.887 120.781, 250.997 113.841 C 246.195 111.441, 240.791 106.916, 228.528 95.028 C 211.129 78.159, 203.584 72.237, 192.249 66.553 C 181.092 60.959, 171.547 58.805, 158 58.825 C 143.522 58.846, 134.311 61.102, 120 68.131 C 110.404 72.844, 108.552 74.247, 98.500 84.410 C 82.771 100.312, 74.921 114.415, 69.224 137 C 66.902 146.206, 66.584 149.410, 66.641 163 C 66.762 191.655, 69.530 197.573, 101.481 237.500 C 123.466 264.973, 139.226 285.324, 200.994 366 C 215.522 384.975, 234.064 408.974, 242.200 419.331 C 250.335 429.688, 257.442 438.913, 257.993 439.831 C 258.892 441.330, 259.224 441.244, 261.247 438.988 C 262.486 437.606, 277.689 420.731, 295.031 401.488 C 312.373 382.245, 332.190 359.975, 339.069 352 C 369.685 316.505, 423.983 249.792, 431.447 238.500 C 443.142 220.807, 453.128 196.464, 456.470 177.500 C 461.713 147.754, 457.938 113.703, 446.890 91.084 C 442.477 82.050, 440.591 79.435, 433.138 72.020 C 420.452 59.400, 408.831 53.791, 388.500 50.476 C 378.932 48.915, 366.517 48.726, 358.831 50.023" stroke="none" fill="black" fill-rule="evenodd"/>
</svg>