<svg xmlns="http://www.w3.org/2000/svg" width="512" height="512" viewBox="0 0 512 512" version="1.1">
	<path d="M 0 256.002 L 0 512.004 256.250 511.752 L 512.500 511.500 512.752 255.750 L 513.004 0 256.502 0 L 0 0 0 256.002 M 0.492 256.500 C 0.492 397.300, 0.608 454.751, 0.750 384.170 C 0.892 313.588, 0.892 198.388, 0.750 128.170 C 0.608 57.951, 0.492 115.700, 0.492 256.500 M 343.500 22.588 C 330.848 24.815, 319.450 28.659, 306.500 35.068 C 292.983 41.758, 287.259 45.832, 268.072 62.423 L 254.644 74.033 252.072 71.669 C 248.076 67.997, 234.180 57.723, 226.408 52.696 C 182.397 24.225, 134.471 21.457, 94.818 45.096 C 71.972 58.715, 52.735 81.146, 36.470 113.134 C 12.521 160.231, 14.653 200.184, 43.409 243.177 C 53.497 258.260, 210.398 461.665, 217.855 469.328 C 226.801 478.521, 238.405 487.806, 244.500 490.648 C 250.607 493.497, 257.909 493.679, 263.536 491.123 C 267.857 489.160, 270.153 486.864, 303.174 451.500 C 329.440 423.371, 338.326 413.494, 357.608 391 C 402.363 338.789, 448.797 280.047, 460.084 261.362 C 471.505 242.454, 479.823 221.140, 484.711 198.256 C 487.274 186.260, 487.436 183.980, 487.433 160 C 487.430 131.766, 486.311 123.632, 479.908 105.312 C 464.766 61.988, 426.917 29.671, 382.973 22.544 C 371.430 20.672, 354.274 20.691, 343.500 22.588 M 345.021 70.008 C 325.825 75.188, 312.453 84.667, 294.234 106.013 C 289.299 111.795, 282.355 119.245, 278.804 122.567 C 261.702 138.565, 251.708 135.727, 224.500 107.147 C 211.190 93.165, 195.574 83.106, 180.841 79.023 C 170.982 76.291, 154.276 76.244, 143.817 78.919 C 128.245 82.902, 115.662 90.384, 103.931 102.638 C 84.775 122.649, 74.661 148.072, 74.747 176 C 74.819 199.359, 78.971 209.386, 98.920 234.373 C 121.910 263.170, 145.896 294.235, 185.495 346.500 C 206.331 374, 229.668 404.594, 237.356 414.487 C 245.043 424.380, 251.333 433.027, 251.333 433.703 C 251.333 434.378, 252.731 436.286, 254.440 437.942 L 257.547 440.953 288.121 406.726 C 304.937 387.902, 322.953 367.550, 328.156 361.500 C 362.454 321.622, 416.266 254.649, 423.102 243.332 C 445.219 206.715, 451.387 165.664, 440.984 124.309 C 439.904 120.014, 436.929 112.225, 434.372 107 C 430.469 99.020, 428.347 96.138, 421.113 88.987 C 406.347 74.393, 392.337 69.057, 367 68.378 C 354.762 68.050, 351.333 68.305, 345.021 70.008" stroke="none" fill="black" fill-rule="evenodd"/>
</svg>